<svg xmlns="http://www.w3.org/2000/svg" xmlns:xlink="http://www.w3.org/1999/xlink" class="httpgd" width="1152.00" height="787.00" viewBox="0 0 921.60 629.60">
<defs>
  <style type='text/css'><![CDATA[
    .httpgd line, .httpgd polyline, .httpgd polygon, .httpgd path, .httpgd rect, .httpgd circle {
      fill: none;
      stroke: #000000;
      stroke-linecap: round;
      stroke-linejoin: round;
      stroke-miterlimit: 10.00;
    }
  ]]></style>
<clipPath id="c0"><rect x="0.00" y="0.00" width="921.60" height="629.60"/></clipPath>
<clipPath id="c1"><rect x="59.04" y="59.04" width="371.52" height="497.12"/></clipPath>
<clipPath id="c2"><rect x="0.00" y="0.00" width="460.80" height="629.60"/></clipPath>
<clipPath id="c3"><rect x="0.00" y="0.00" width="921.60" height="629.60"/></clipPath>
<clipPath id="c4"><rect x="59.04" y="59.04" width="371.52" height="497.12"/></clipPath>
<clipPath id="c5"><rect x="519.84" y="59.04" width="371.52" height="497.12"/></clipPath>
<clipPath id="c6"><rect x="460.80" y="0.00" width="460.80" height="629.60"/></clipPath>
<clipPath id="c7"><rect x="0.00" y="0.00" width="921.60" height="629.60"/></clipPath>
<clipPath id="c8"><rect x="519.84" y="59.04" width="371.52" height="497.12"/></clipPath>
</defs>
<rect width="100%" height="100%" style="stroke: none;fill: #FFFFFF;"/>
<g clip-path="url(#c0)">
</g><g clip-path="url(#c2)">
<g><text x="231.51" y="608.68" style="font-family: Arial;font-size: 12.00px;" textLength="9.33px" lengthAdjust="spacingAndGlyphs">G</text></g>
<g><text x="233.36" y="602.53" style="font-family: Arial;font-size: 12.00px;" textLength="5.63px" lengthAdjust="spacingAndGlyphs">^</text></g>
<g><text x="240.84" y="610.88" style="font-family: Arial;font-size: 8.40px;" textLength="6.99px" lengthAdjust="spacingAndGlyphs">M</text></g>
<g><text x="247.83" y="610.88" style="font-family: Arial;font-size: 8.40px;" textLength="4.67px" lengthAdjust="spacingAndGlyphs">L</text></g>
<g><text x="252.50" y="610.88" style="font-family: Arial;font-size: 8.40px;" textLength="5.59px" lengthAdjust="spacingAndGlyphs">E</text></g>
<g><text transform="translate(12.96,307.60) rotate(-90.00)" text-anchor="middle" style="font-family: Arial;font-size: 12.00px;" textLength="56.69px" lengthAdjust="spacingAndGlyphs">Frequency</text></g>
</g><g clip-path="url(#c3)">
<line x1="107.20" y1="556.16" x2="402.06" y2="556.16" style="stroke-width: 0.75;"/>
<line x1="107.20" y1="556.16" x2="107.20" y2="563.36" style="stroke-width: 0.75;"/>
<line x1="156.34" y1="556.16" x2="156.34" y2="563.36" style="stroke-width: 0.75;"/>
<line x1="205.49" y1="556.16" x2="205.49" y2="563.36" style="stroke-width: 0.75;"/>
<line x1="254.63" y1="556.16" x2="254.63" y2="563.36" style="stroke-width: 0.75;"/>
<line x1="303.77" y1="556.16" x2="303.77" y2="563.36" style="stroke-width: 0.75;"/>
<line x1="352.91" y1="556.16" x2="352.91" y2="563.36" style="stroke-width: 0.75;"/>
<line x1="402.06" y1="556.16" x2="402.06" y2="563.36" style="stroke-width: 0.75;"/>
<g><text x="107.20" y="582.08" text-anchor="middle" style="font-family: Arial;font-size: 12.00px;" textLength="23.36px" lengthAdjust="spacingAndGlyphs">0.10</text></g>
<g><text x="156.34" y="582.08" text-anchor="middle" style="font-family: Arial;font-size: 12.00px;" textLength="23.36px" lengthAdjust="spacingAndGlyphs">0.15</text></g>
<g><text x="205.49" y="582.08" text-anchor="middle" style="font-family: Arial;font-size: 12.00px;" textLength="23.36px" lengthAdjust="spacingAndGlyphs">0.20</text></g>
<g><text x="254.63" y="582.08" text-anchor="middle" style="font-family: Arial;font-size: 12.00px;" textLength="23.36px" lengthAdjust="spacingAndGlyphs">0.25</text></g>
<g><text x="303.77" y="582.08" text-anchor="middle" style="font-family: Arial;font-size: 12.00px;" textLength="23.36px" lengthAdjust="spacingAndGlyphs">0.30</text></g>
<g><text x="352.91" y="582.08" text-anchor="middle" style="font-family: Arial;font-size: 12.00px;" textLength="23.36px" lengthAdjust="spacingAndGlyphs">0.35</text></g>
<g><text x="402.06" y="582.08" text-anchor="middle" style="font-family: Arial;font-size: 12.00px;" textLength="23.36px" lengthAdjust="spacingAndGlyphs">0.40</text></g>
<line x1="59.04" y1="537.75" x2="59.04" y2="109.57" style="stroke-width: 0.75;"/>
<line x1="59.04" y1="537.75" x2="51.84" y2="537.75" style="stroke-width: 0.75;"/>
<line x1="59.04" y1="430.70" x2="51.84" y2="430.70" style="stroke-width: 0.75;"/>
<line x1="59.04" y1="323.66" x2="51.84" y2="323.66" style="stroke-width: 0.75;"/>
<line x1="59.04" y1="216.61" x2="51.84" y2="216.61" style="stroke-width: 0.75;"/>
<line x1="59.04" y1="109.57" x2="51.84" y2="109.57" style="stroke-width: 0.75;"/>
<g><text transform="translate(41.76,537.75) rotate(-90.00)" text-anchor="middle" style="font-family: Arial;font-size: 12.00px;" textLength="6.67px" lengthAdjust="spacingAndGlyphs">0</text></g>
<g><text transform="translate(41.76,430.70) rotate(-90.00)" text-anchor="middle" style="font-family: Arial;font-size: 12.00px;" textLength="13.35px" lengthAdjust="spacingAndGlyphs">10</text></g>
<g><text transform="translate(41.76,323.66) rotate(-90.00)" text-anchor="middle" style="font-family: Arial;font-size: 12.00px;" textLength="13.35px" lengthAdjust="spacingAndGlyphs">20</text></g>
<g><text transform="translate(41.76,216.61) rotate(-90.00)" text-anchor="middle" style="font-family: Arial;font-size: 12.00px;" textLength="13.35px" lengthAdjust="spacingAndGlyphs">30</text></g>
<g><text transform="translate(41.76,109.57) rotate(-90.00)" text-anchor="middle" style="font-family: Arial;font-size: 12.00px;" textLength="13.35px" lengthAdjust="spacingAndGlyphs">40</text></g>
</g><g clip-path="url(#c4)">
<rect x="72.80" y="516.34" width="4.91" height="21.41" style="stroke-width: 0.75;fill: #FF8C00;"/>
<rect x="77.71" y="527.04" width="4.91" height="10.70" style="stroke-width: 0.75;fill: #FF8C00;"/>
<rect x="82.63" y="527.04" width="4.91" height="10.70" style="stroke-width: 0.75;fill: #FF8C00;"/>
<rect x="87.54" y="527.04" width="4.91" height="10.70" style="stroke-width: 0.75;fill: #FF8C00;"/>
<rect x="92.46" y="516.34" width="4.91" height="21.41" style="stroke-width: 0.75;fill: #FF8C00;"/>
<rect x="97.37" y="505.63" width="4.91" height="32.11" style="stroke-width: 0.75;fill: #FF8C00;"/>
<rect x="102.29" y="494.93" width="4.91" height="42.82" style="stroke-width: 0.75;fill: #FF8C00;"/>
<rect x="107.20" y="484.23" width="4.91" height="53.52" style="stroke-width: 0.75;fill: #FF8C00;"/>
<rect x="112.11" y="462.82" width="4.91" height="74.93" style="stroke-width: 0.75;fill: #FF8C00;"/>
<rect x="117.03" y="398.59" width="4.91" height="139.16" style="stroke-width: 0.75;fill: #FF8C00;"/>
<rect x="121.94" y="345.07" width="4.91" height="192.68" style="stroke-width: 0.75;fill: #FF8C00;"/>
<rect x="126.86" y="398.59" width="4.91" height="139.16" style="stroke-width: 0.75;fill: #FF8C00;"/>
<rect x="131.77" y="420.00" width="4.91" height="117.75" style="stroke-width: 0.75;fill: #FF8C00;"/>
<rect x="136.69" y="259.43" width="4.91" height="278.32" style="stroke-width: 0.75;fill: #FF8C00;"/>
<rect x="141.60" y="152.38" width="4.91" height="385.36" style="stroke-width: 0.75;fill: #FF8C00;"/>
<rect x="146.51" y="173.79" width="4.91" height="363.96" style="stroke-width: 0.75;fill: #FF8C00;"/>
<rect x="151.43" y="130.97" width="4.91" height="406.77" style="stroke-width: 0.75;fill: #FF8C00;"/>
<rect x="156.34" y="184.50" width="4.91" height="353.25" style="stroke-width: 0.75;fill: #FF8C00;"/>
<rect x="161.26" y="216.61" width="4.91" height="321.14" style="stroke-width: 0.75;fill: #FF8C00;"/>
<rect x="166.17" y="77.45" width="4.91" height="460.30" style="stroke-width: 0.75;fill: #FF8C00;"/>
<rect x="171.09" y="163.09" width="4.91" height="374.66" style="stroke-width: 0.75;fill: #FF8C00;"/>
<rect x="176.00" y="130.97" width="4.91" height="406.77" style="stroke-width: 0.75;fill: #FF8C00;"/>
<rect x="180.91" y="98.86" width="4.91" height="438.89" style="stroke-width: 0.75;fill: #FF8C00;"/>
<rect x="185.83" y="141.68" width="4.91" height="396.07" style="stroke-width: 0.75;fill: #FF8C00;"/>
<rect x="190.74" y="88.16" width="4.91" height="449.59" style="stroke-width: 0.75;fill: #FF8C00;"/>
<rect x="195.66" y="173.79" width="4.91" height="363.96" style="stroke-width: 0.75;fill: #FF8C00;"/>
<rect x="200.57" y="259.43" width="4.91" height="278.32" style="stroke-width: 0.75;fill: #FF8C00;"/>
<rect x="205.49" y="98.86" width="4.91" height="438.89" style="stroke-width: 0.75;fill: #FF8C00;"/>
<rect x="210.40" y="205.91" width="4.91" height="331.84" style="stroke-width: 0.75;fill: #FF8C00;"/>
<rect x="215.31" y="205.91" width="4.91" height="331.84" style="stroke-width: 0.75;fill: #FF8C00;"/>
<rect x="220.23" y="216.61" width="4.91" height="321.14" style="stroke-width: 0.75;fill: #FF8C00;"/>
<rect x="225.14" y="291.54" width="4.91" height="246.20" style="stroke-width: 0.75;fill: #FF8C00;"/>
<rect x="230.06" y="270.13" width="4.91" height="267.61" style="stroke-width: 0.75;fill: #FF8C00;"/>
<rect x="234.97" y="312.95" width="4.91" height="224.80" style="stroke-width: 0.75;fill: #FF8C00;"/>
<rect x="239.89" y="280.84" width="4.91" height="256.91" style="stroke-width: 0.75;fill: #FF8C00;"/>
<rect x="244.80" y="280.84" width="4.91" height="256.91" style="stroke-width: 0.75;fill: #FF8C00;"/>
<rect x="249.71" y="270.13" width="4.91" height="267.61" style="stroke-width: 0.75;fill: #FF8C00;"/>
<rect x="254.63" y="312.95" width="4.91" height="224.80" style="stroke-width: 0.75;fill: #FF8C00;"/>
<rect x="259.54" y="355.77" width="4.91" height="181.98" style="stroke-width: 0.75;fill: #FF8C00;"/>
<rect x="264.46" y="409.29" width="4.91" height="128.45" style="stroke-width: 0.75;fill: #FF8C00;"/>
<rect x="269.37" y="420.00" width="4.91" height="117.75" style="stroke-width: 0.75;fill: #FF8C00;"/>
<rect x="274.29" y="441.41" width="4.91" height="96.34" style="stroke-width: 0.75;fill: #FF8C00;"/>
<rect x="279.20" y="420.00" width="4.91" height="117.75" style="stroke-width: 0.75;fill: #FF8C00;"/>
<rect x="284.11" y="452.11" width="4.91" height="85.64" style="stroke-width: 0.75;fill: #FF8C00;"/>
<rect x="289.03" y="409.29" width="4.91" height="128.45" style="stroke-width: 0.75;fill: #FF8C00;"/>
<rect x="293.94" y="484.23" width="4.91" height="53.52" style="stroke-width: 0.75;fill: #FF8C00;"/>
<rect x="298.86" y="441.41" width="4.91" height="96.34" style="stroke-width: 0.75;fill: #FF8C00;"/>
<rect x="303.77" y="484.23" width="4.91" height="53.52" style="stroke-width: 0.75;fill: #FF8C00;"/>
<rect x="308.69" y="505.63" width="4.91" height="32.11" style="stroke-width: 0.75;fill: #FF8C00;"/>
<rect x="313.60" y="527.04" width="4.91" height="10.70" style="stroke-width: 0.75;fill: #FF8C00;"/>
<rect x="318.51" y="494.93" width="4.91" height="42.82" style="stroke-width: 0.75;fill: #FF8C00;"/>
<rect x="323.43" y="505.63" width="4.91" height="32.11" style="stroke-width: 0.75;fill: #FF8C00;"/>
<rect x="328.34" y="505.63" width="4.91" height="32.11" style="stroke-width: 0.75;fill: #FF8C00;"/>
<rect x="333.26" y="505.63" width="4.91" height="32.11" style="stroke-width: 0.75;fill: #FF8C00;"/>
<rect x="338.17" y="494.93" width="4.91" height="42.82" style="stroke-width: 0.75;fill: #FF8C00;"/>
<rect x="343.09" y="527.04" width="4.91" height="10.70" style="stroke-width: 0.75;fill: #FF8C00;"/>
<rect x="348.00" y="537.75" width="4.91" height="0.00" style="stroke-width: 0.75;fill: #FF8C00;"/>
<rect x="352.91" y="505.63" width="4.91" height="32.11" style="stroke-width: 0.75;fill: #FF8C00;"/>
<rect x="357.83" y="537.75" width="4.91" height="0.00" style="stroke-width: 0.75;fill: #FF8C00;"/>
<rect x="362.74" y="527.04" width="4.91" height="10.70" style="stroke-width: 0.75;fill: #FF8C00;"/>
<rect x="367.66" y="537.75" width="4.91" height="0.00" style="stroke-width: 0.75;fill: #FF8C00;"/>
<rect x="372.57" y="527.04" width="4.91" height="10.70" style="stroke-width: 0.75;fill: #FF8C00;"/>
<rect x="377.49" y="537.75" width="4.91" height="0.00" style="stroke-width: 0.75;fill: #FF8C00;"/>
<rect x="382.40" y="527.04" width="4.91" height="10.70" style="stroke-width: 0.75;fill: #FF8C00;"/>
<rect x="387.31" y="537.75" width="4.91" height="0.00" style="stroke-width: 0.75;fill: #FF8C00;"/>
<rect x="392.23" y="537.75" width="4.91" height="0.00" style="stroke-width: 0.75;fill: #FF8C00;"/>
<rect x="397.14" y="527.04" width="4.91" height="10.70" style="stroke-width: 0.75;fill: #FF8C00;"/>
<rect x="402.06" y="537.75" width="4.91" height="0.00" style="stroke-width: 0.75;fill: #FF8C00;"/>
<rect x="406.97" y="527.04" width="4.91" height="10.70" style="stroke-width: 0.75;fill: #FF8C00;"/>
<rect x="411.89" y="527.04" width="4.91" height="10.70" style="stroke-width: 0.75;fill: #FF8C00;"/>
<line x1="205.49" y1="556.16" x2="205.49" y2="59.04" style="stroke-width: 0.75;stroke: #006400; stroke-dasharray: 4.00, 4.00;"/>
</g><g clip-path="url(#c6)">
<g><text x="691.15" y="608.68" style="font-family: Arial;font-size: 12.00px;" textLength="9.33px" lengthAdjust="spacingAndGlyphs">G</text></g>
<g><text x="693.00" y="602.53" style="font-family: Arial;font-size: 12.00px;" textLength="5.63px" lengthAdjust="spacingAndGlyphs">^</text></g>
<g><text x="700.48" y="610.88" style="font-family: Arial;font-size: 8.40px;" textLength="6.99px" lengthAdjust="spacingAndGlyphs">M</text></g>
<g><text x="707.47" y="610.88" style="font-family: Arial;font-size: 8.40px;" textLength="6.99px" lengthAdjust="spacingAndGlyphs">M</text></g>
<g><text x="714.46" y="610.88" style="font-family: Arial;font-size: 8.40px;" textLength="5.59px" lengthAdjust="spacingAndGlyphs">E</text></g>
<g><text transform="translate(473.76,307.60) rotate(-90.00)" text-anchor="middle" style="font-family: Arial;font-size: 12.00px;" textLength="56.69px" lengthAdjust="spacingAndGlyphs">Frequency</text></g>
</g><g clip-path="url(#c7)">
<line x1="557.05" y1="556.16" x2="869.78" y2="556.16" style="stroke-width: 0.75;"/>
<line x1="557.05" y1="556.16" x2="557.05" y2="563.36" style="stroke-width: 0.75;"/>
<line x1="635.24" y1="556.16" x2="635.24" y2="563.36" style="stroke-width: 0.75;"/>
<line x1="713.42" y1="556.16" x2="713.42" y2="563.36" style="stroke-width: 0.75;"/>
<line x1="791.60" y1="556.16" x2="791.60" y2="563.36" style="stroke-width: 0.75;"/>
<line x1="869.78" y1="556.16" x2="869.78" y2="563.36" style="stroke-width: 0.75;"/>
<g><text x="557.05" y="582.08" text-anchor="middle" style="font-family: Arial;font-size: 12.00px;" textLength="16.68px" lengthAdjust="spacingAndGlyphs">0.1</text></g>
<g><text x="635.24" y="582.08" text-anchor="middle" style="font-family: Arial;font-size: 12.00px;" textLength="16.68px" lengthAdjust="spacingAndGlyphs">0.2</text></g>
<g><text x="713.42" y="582.08" text-anchor="middle" style="font-family: Arial;font-size: 12.00px;" textLength="16.68px" lengthAdjust="spacingAndGlyphs">0.3</text></g>
<g><text x="791.60" y="582.08" text-anchor="middle" style="font-family: Arial;font-size: 12.00px;" textLength="16.68px" lengthAdjust="spacingAndGlyphs">0.4</text></g>
<g><text x="869.78" y="582.08" text-anchor="middle" style="font-family: Arial;font-size: 12.00px;" textLength="16.68px" lengthAdjust="spacingAndGlyphs">0.5</text></g>
<line x1="519.84" y1="537.75" x2="519.84" y2="94.09" style="stroke-width: 0.75;"/>
<line x1="519.84" y1="537.75" x2="512.64" y2="537.75" style="stroke-width: 0.75;"/>
<line x1="519.84" y1="426.83" x2="512.64" y2="426.83" style="stroke-width: 0.75;"/>
<line x1="519.84" y1="315.92" x2="512.64" y2="315.92" style="stroke-width: 0.75;"/>
<line x1="519.84" y1="205.00" x2="512.64" y2="205.00" style="stroke-width: 0.75;"/>
<line x1="519.84" y1="94.09" x2="512.64" y2="94.09" style="stroke-width: 0.75;"/>
<g><text transform="translate(502.56,537.75) rotate(-90.00)" text-anchor="middle" style="font-family: Arial;font-size: 12.00px;" textLength="6.67px" lengthAdjust="spacingAndGlyphs">0</text></g>
<g><text transform="translate(502.56,426.83) rotate(-90.00)" text-anchor="middle" style="font-family: Arial;font-size: 12.00px;" textLength="13.35px" lengthAdjust="spacingAndGlyphs">20</text></g>
<g><text transform="translate(502.56,315.92) rotate(-90.00)" text-anchor="middle" style="font-family: Arial;font-size: 12.00px;" textLength="13.35px" lengthAdjust="spacingAndGlyphs">40</text></g>
<g><text transform="translate(502.56,205.00) rotate(-90.00)" text-anchor="middle" style="font-family: Arial;font-size: 12.00px;" textLength="13.35px" lengthAdjust="spacingAndGlyphs">60</text></g>
<g><text transform="translate(502.56,94.09) rotate(-90.00)" text-anchor="middle" style="font-family: Arial;font-size: 12.00px;" textLength="13.35px" lengthAdjust="spacingAndGlyphs">80</text></g>
</g><g clip-path="url(#c8)">
<rect x="533.60" y="515.57" width="7.82" height="22.18" style="stroke-width: 0.75;fill: #4682B4;"/>
<rect x="541.42" y="532.20" width="7.82" height="5.55" style="stroke-width: 0.75;fill: #4682B4;"/>
<rect x="549.24" y="504.47" width="7.82" height="33.27" style="stroke-width: 0.75;fill: #4682B4;"/>
<rect x="557.05" y="498.93" width="7.82" height="38.82" style="stroke-width: 0.75;fill: #4682B4;"/>
<rect x="564.87" y="393.56" width="7.82" height="144.19" style="stroke-width: 0.75;fill: #4682B4;"/>
<rect x="572.69" y="404.65" width="7.82" height="133.10" style="stroke-width: 0.75;fill: #4682B4;"/>
<rect x="580.51" y="238.28" width="7.82" height="299.47" style="stroke-width: 0.75;fill: #4682B4;"/>
<rect x="588.33" y="166.18" width="7.82" height="371.56" style="stroke-width: 0.75;fill: #4682B4;"/>
<rect x="596.15" y="171.73" width="7.82" height="366.02" style="stroke-width: 0.75;fill: #4682B4;"/>
<rect x="603.96" y="127.36" width="7.82" height="410.38" style="stroke-width: 0.75;fill: #4682B4;"/>
<rect x="611.78" y="177.28" width="7.82" height="360.47" style="stroke-width: 0.75;fill: #4682B4;"/>
<rect x="619.60" y="171.73" width="7.82" height="366.02" style="stroke-width: 0.75;fill: #4682B4;"/>
<rect x="627.42" y="121.82" width="7.82" height="415.93" style="stroke-width: 0.75;fill: #4682B4;"/>
<rect x="635.24" y="77.45" width="7.82" height="460.30" style="stroke-width: 0.75;fill: #4682B4;"/>
<rect x="643.05" y="188.37" width="7.82" height="349.38" style="stroke-width: 0.75;fill: #4682B4;"/>
<rect x="650.87" y="221.64" width="7.82" height="316.11" style="stroke-width: 0.75;fill: #4682B4;"/>
<rect x="658.69" y="205.00" width="7.82" height="332.74" style="stroke-width: 0.75;fill: #4682B4;"/>
<rect x="666.51" y="338.10" width="7.82" height="199.65" style="stroke-width: 0.75;fill: #4682B4;"/>
<rect x="674.33" y="327.01" width="7.82" height="210.74" style="stroke-width: 0.75;fill: #4682B4;"/>
<rect x="682.15" y="410.20" width="7.82" height="127.55" style="stroke-width: 0.75;fill: #4682B4;"/>
<rect x="689.96" y="410.20" width="7.82" height="127.55" style="stroke-width: 0.75;fill: #4682B4;"/>
<rect x="697.78" y="426.83" width="7.82" height="110.91" style="stroke-width: 0.75;fill: #4682B4;"/>
<rect x="705.60" y="498.93" width="7.82" height="38.82" style="stroke-width: 0.75;fill: #4682B4;"/>
<rect x="713.42" y="493.38" width="7.82" height="44.37" style="stroke-width: 0.75;fill: #4682B4;"/>
<rect x="721.24" y="454.56" width="7.82" height="83.19" style="stroke-width: 0.75;fill: #4682B4;"/>
<rect x="729.05" y="487.84" width="7.82" height="49.91" style="stroke-width: 0.75;fill: #4682B4;"/>
<rect x="736.87" y="498.93" width="7.82" height="38.82" style="stroke-width: 0.75;fill: #4682B4;"/>
<rect x="744.69" y="521.11" width="7.82" height="16.64" style="stroke-width: 0.75;fill: #4682B4;"/>
<rect x="752.51" y="526.66" width="7.82" height="11.09" style="stroke-width: 0.75;fill: #4682B4;"/>
<rect x="760.33" y="537.75" width="7.82" height="0.00" style="stroke-width: 0.75;fill: #4682B4;"/>
<rect x="768.15" y="532.20" width="7.82" height="5.55" style="stroke-width: 0.75;fill: #4682B4;"/>
<rect x="775.96" y="532.20" width="7.82" height="5.55" style="stroke-width: 0.75;fill: #4682B4;"/>
<rect x="783.78" y="537.75" width="7.82" height="0.00" style="stroke-width: 0.75;fill: #4682B4;"/>
<rect x="791.60" y="526.66" width="7.82" height="11.09" style="stroke-width: 0.75;fill: #4682B4;"/>
<rect x="799.42" y="537.75" width="7.82" height="0.00" style="stroke-width: 0.75;fill: #4682B4;"/>
<rect x="807.24" y="537.75" width="7.82" height="0.00" style="stroke-width: 0.75;fill: #4682B4;"/>
<rect x="815.05" y="537.75" width="7.82" height="0.00" style="stroke-width: 0.75;fill: #4682B4;"/>
<rect x="822.87" y="526.66" width="7.82" height="11.09" style="stroke-width: 0.75;fill: #4682B4;"/>
<rect x="830.69" y="526.66" width="7.82" height="11.09" style="stroke-width: 0.75;fill: #4682B4;"/>
<rect x="838.51" y="532.20" width="7.82" height="5.55" style="stroke-width: 0.75;fill: #4682B4;"/>
<rect x="846.33" y="537.75" width="7.82" height="0.00" style="stroke-width: 0.75;fill: #4682B4;"/>
<rect x="854.15" y="532.20" width="7.82" height="5.55" style="stroke-width: 0.75;fill: #4682B4;"/>
<rect x="861.96" y="537.75" width="7.82" height="0.00" style="stroke-width: 0.75;fill: #4682B4;"/>
<rect x="869.78" y="532.20" width="7.82" height="5.55" style="stroke-width: 0.75;fill: #4682B4;"/>
<line x1="635.24" y1="556.16" x2="635.24" y2="59.04" style="stroke-width: 0.75;stroke: #006400; stroke-dasharray: 4.00, 4.00;"/>
<rect x="725.44" y="59.04" width="165.92" height="102.08" style="stroke-width: 0.75;fill: #FFFFFF;"/>
<rect x="745.73" y="78.18" width="16.23" height="12.76" style="stroke-width: 0.75;fill: #FF8C00;"/>
<rect x="745.73" y="103.70" width="16.23" height="12.76" style="stroke-width: 0.75;fill: #4682B4;"/>
<rect x="745.73" y="129.22" width="16.23" height="12.76" style="stroke-width: 0.75;fill: #006400;"/>
<g><text x="782.26" y="88.86" style="font-family: Arial;font-size: 12.00px;" textLength="49.34px" lengthAdjust="spacingAndGlyphs">Gini MLE</text></g>
<g><text x="782.26" y="114.38" style="font-family: Arial;font-size: 12.00px;" textLength="52.66px" lengthAdjust="spacingAndGlyphs">Gini MME</text></g>
<g><text x="782.26" y="139.90" style="font-family: Arial;font-size: 12.00px;" textLength="49.34px" lengthAdjust="spacingAndGlyphs">True Gini</text></g>
</g>
</svg>