<svg xmlns="http://www.w3.org/2000/svg" xmlns:xlink="http://www.w3.org/1999/xlink" class="httpgd" width="1152.00" height="787.00" viewBox="0 0 921.60 629.60">
<defs>
  <style type='text/css'><![CDATA[
    .httpgd line, .httpgd polyline, .httpgd polygon, .httpgd path, .httpgd rect, .httpgd circle {
      fill: none;
      stroke: #000000;
      stroke-linecap: round;
      stroke-linejoin: round;
      stroke-miterlimit: 10.00;
    }
  ]]></style>
<clipPath id="c0"><rect x="0.00" y="0.00" width="921.60" height="629.60"/></clipPath>
<clipPath id="c1"><rect x="59.04" y="59.04" width="371.52" height="497.12"/></clipPath>
<clipPath id="c2"><rect x="0.00" y="0.00" width="460.80" height="629.60"/></clipPath>
<clipPath id="c3"><rect x="0.00" y="0.00" width="921.60" height="629.60"/></clipPath>
<clipPath id="c4"><rect x="59.04" y="59.04" width="371.52" height="497.12"/></clipPath>
<clipPath id="c5"><rect x="519.84" y="59.04" width="371.52" height="497.12"/></clipPath>
<clipPath id="c6"><rect x="460.80" y="0.00" width="460.80" height="629.60"/></clipPath>
<clipPath id="c7"><rect x="0.00" y="0.00" width="921.60" height="629.60"/></clipPath>
<clipPath id="c8"><rect x="519.84" y="59.04" width="371.52" height="497.12"/></clipPath>
</defs>
<rect width="100%" height="100%" style="stroke: none;fill: #FFFFFF;"/>
<g clip-path="url(#c0)">
</g><g clip-path="url(#c2)">
<g><text x="244.80" y="610.88" text-anchor="middle" style="font-family: Arial;font-size: 12.00px;" textLength="91.35px" lengthAdjust="spacingAndGlyphs">Gini MLE sample</text></g>
<g><text transform="translate(12.96,307.60) rotate(-90.00)" text-anchor="middle" style="font-family: Arial;font-size: 12.00px;" textLength="56.69px" lengthAdjust="spacingAndGlyphs">Frequency</text></g>
</g><g clip-path="url(#c3)">
<line x1="106.36" y1="556.16" x2="358.07" y2="556.16" style="stroke-width: 0.75;"/>
<line x1="106.36" y1="556.16" x2="106.36" y2="563.36" style="stroke-width: 0.75;"/>
<line x1="190.26" y1="556.16" x2="190.26" y2="563.36" style="stroke-width: 0.75;"/>
<line x1="274.17" y1="556.16" x2="274.17" y2="563.36" style="stroke-width: 0.75;"/>
<line x1="358.07" y1="556.16" x2="358.07" y2="563.36" style="stroke-width: 0.75;"/>
<g><text x="106.36" y="582.08" text-anchor="middle" style="font-family: Arial;font-size: 12.00px;" textLength="16.68px" lengthAdjust="spacingAndGlyphs">0.1</text></g>
<g><text x="190.26" y="582.08" text-anchor="middle" style="font-family: Arial;font-size: 12.00px;" textLength="16.68px" lengthAdjust="spacingAndGlyphs">0.2</text></g>
<g><text x="274.17" y="582.08" text-anchor="middle" style="font-family: Arial;font-size: 12.00px;" textLength="16.68px" lengthAdjust="spacingAndGlyphs">0.3</text></g>
<g><text x="358.07" y="582.08" text-anchor="middle" style="font-family: Arial;font-size: 12.00px;" textLength="16.68px" lengthAdjust="spacingAndGlyphs">0.4</text></g>
<line x1="59.04" y1="537.75" x2="59.04" y2="128.60" style="stroke-width: 0.75;"/>
<line x1="59.04" y1="537.75" x2="51.84" y2="537.75" style="stroke-width: 0.75;"/>
<line x1="59.04" y1="435.46" x2="51.84" y2="435.46" style="stroke-width: 0.75;"/>
<line x1="59.04" y1="333.17" x2="51.84" y2="333.17" style="stroke-width: 0.75;"/>
<line x1="59.04" y1="230.88" x2="51.84" y2="230.88" style="stroke-width: 0.75;"/>
<line x1="59.04" y1="128.60" x2="51.84" y2="128.60" style="stroke-width: 0.75;"/>
<g><text transform="translate(41.76,537.75) rotate(-90.00)" text-anchor="middle" style="font-family: Arial;font-size: 12.00px;" textLength="6.67px" lengthAdjust="spacingAndGlyphs">0</text></g>
<g><text transform="translate(41.76,435.46) rotate(-90.00)" text-anchor="middle" style="font-family: Arial;font-size: 12.00px;" textLength="13.35px" lengthAdjust="spacingAndGlyphs">20</text></g>
<g><text transform="translate(41.76,333.17) rotate(-90.00)" text-anchor="middle" style="font-family: Arial;font-size: 12.00px;" textLength="13.35px" lengthAdjust="spacingAndGlyphs">40</text></g>
<g><text transform="translate(41.76,230.88) rotate(-90.00)" text-anchor="middle" style="font-family: Arial;font-size: 12.00px;" textLength="13.35px" lengthAdjust="spacingAndGlyphs">60</text></g>
<g><text transform="translate(41.76,128.60) rotate(-90.00)" text-anchor="middle" style="font-family: Arial;font-size: 12.00px;" textLength="13.35px" lengthAdjust="spacingAndGlyphs">80</text></g>
</g><g clip-path="url(#c4)">
<rect x="72.80" y="532.63" width="8.39" height="5.11" style="stroke-width: 0.75;fill: #4682B4;"/>
<rect x="81.19" y="522.40" width="8.39" height="15.34" style="stroke-width: 0.75;fill: #4682B4;"/>
<rect x="89.58" y="507.06" width="8.39" height="30.69" style="stroke-width: 0.75;fill: #4682B4;"/>
<rect x="97.97" y="491.72" width="8.39" height="46.03" style="stroke-width: 0.75;fill: #4682B4;"/>
<rect x="106.36" y="486.60" width="8.39" height="51.14" style="stroke-width: 0.75;fill: #4682B4;"/>
<rect x="114.75" y="368.97" width="8.39" height="168.78" style="stroke-width: 0.75;fill: #4682B4;"/>
<rect x="123.14" y="312.71" width="8.39" height="225.03" style="stroke-width: 0.75;fill: #4682B4;"/>
<rect x="131.53" y="220.66" width="8.39" height="317.09" style="stroke-width: 0.75;fill: #4682B4;"/>
<rect x="139.92" y="225.77" width="8.39" height="311.98" style="stroke-width: 0.75;fill: #4682B4;"/>
<rect x="148.31" y="200.20" width="8.39" height="337.55" style="stroke-width: 0.75;fill: #4682B4;"/>
<rect x="156.70" y="97.91" width="8.39" height="439.84" style="stroke-width: 0.75;fill: #4682B4;"/>
<rect x="165.09" y="123.48" width="8.39" height="414.27" style="stroke-width: 0.75;fill: #4682B4;"/>
<rect x="173.48" y="77.45" width="8.39" height="460.30" style="stroke-width: 0.75;fill: #4682B4;"/>
<rect x="181.87" y="210.43" width="8.39" height="327.32" style="stroke-width: 0.75;fill: #4682B4;"/>
<rect x="190.26" y="154.17" width="8.39" height="383.58" style="stroke-width: 0.75;fill: #4682B4;"/>
<rect x="198.65" y="241.11" width="8.39" height="296.64" style="stroke-width: 0.75;fill: #4682B4;"/>
<rect x="207.04" y="358.74" width="8.39" height="179.00" style="stroke-width: 0.75;fill: #4682B4;"/>
<rect x="215.43" y="271.80" width="8.39" height="265.95" style="stroke-width: 0.75;fill: #4682B4;"/>
<rect x="223.82" y="358.74" width="8.39" height="179.00" style="stroke-width: 0.75;fill: #4682B4;"/>
<rect x="232.21" y="374.09" width="8.39" height="163.66" style="stroke-width: 0.75;fill: #4682B4;"/>
<rect x="240.60" y="415.00" width="8.39" height="122.75" style="stroke-width: 0.75;fill: #4682B4;"/>
<rect x="249.00" y="440.57" width="8.39" height="97.17" style="stroke-width: 0.75;fill: #4682B4;"/>
<rect x="257.39" y="450.80" width="8.39" height="86.94" style="stroke-width: 0.75;fill: #4682B4;"/>
<rect x="265.78" y="471.26" width="8.39" height="66.49" style="stroke-width: 0.75;fill: #4682B4;"/>
<rect x="274.17" y="507.06" width="8.39" height="30.69" style="stroke-width: 0.75;fill: #4682B4;"/>
<rect x="282.56" y="522.40" width="8.39" height="15.34" style="stroke-width: 0.75;fill: #4682B4;"/>
<rect x="290.95" y="517.29" width="8.39" height="20.46" style="stroke-width: 0.75;fill: #4682B4;"/>
<rect x="299.34" y="522.40" width="8.39" height="15.34" style="stroke-width: 0.75;fill: #4682B4;"/>
<rect x="307.73" y="527.52" width="8.39" height="10.23" style="stroke-width: 0.75;fill: #4682B4;"/>
<rect x="316.12" y="537.75" width="8.39" height="0.00" style="stroke-width: 0.75;fill: #4682B4;"/>
<rect x="324.51" y="532.63" width="8.39" height="5.11" style="stroke-width: 0.75;fill: #4682B4;"/>
<rect x="332.90" y="537.75" width="8.39" height="0.00" style="stroke-width: 0.75;fill: #4682B4;"/>
<rect x="341.29" y="532.63" width="8.39" height="5.11" style="stroke-width: 0.75;fill: #4682B4;"/>
<rect x="349.68" y="532.63" width="8.39" height="5.11" style="stroke-width: 0.75;fill: #4682B4;"/>
<rect x="358.07" y="537.75" width="8.39" height="0.00" style="stroke-width: 0.75;fill: #4682B4;"/>
<rect x="366.46" y="537.75" width="8.39" height="0.00" style="stroke-width: 0.75;fill: #4682B4;"/>
<rect x="374.85" y="537.75" width="8.39" height="0.00" style="stroke-width: 0.75;fill: #4682B4;"/>
<rect x="383.24" y="537.75" width="8.39" height="0.00" style="stroke-width: 0.75;fill: #4682B4;"/>
<rect x="391.63" y="537.75" width="8.39" height="0.00" style="stroke-width: 0.75;fill: #4682B4;"/>
<rect x="400.02" y="532.63" width="8.39" height="5.11" style="stroke-width: 0.75;fill: #4682B4;"/>
<rect x="408.41" y="527.52" width="8.39" height="10.23" style="stroke-width: 0.75;fill: #4682B4;"/>
<line x1="190.26" y1="556.16" x2="190.26" y2="59.04" style="stroke-width: 0.75;stroke: #00FF00; stroke-dasharray: 4.00, 4.00;"/>
</g><g clip-path="url(#c6)">
<g><text x="705.60" y="610.88" text-anchor="middle" style="font-family: Arial;font-size: 12.00px;" textLength="94.67px" lengthAdjust="spacingAndGlyphs">Gini MME sample</text></g>
<g><text transform="translate(473.76,307.60) rotate(-90.00)" text-anchor="middle" style="font-family: Arial;font-size: 12.00px;" textLength="56.69px" lengthAdjust="spacingAndGlyphs">Frequency</text></g>
</g><g clip-path="url(#c7)">
<line x1="553.07" y1="556.16" x2="877.60" y2="556.16" style="stroke-width: 0.75;"/>
<line x1="553.07" y1="556.16" x2="553.07" y2="563.36" style="stroke-width: 0.75;"/>
<line x1="617.98" y1="556.16" x2="617.98" y2="563.36" style="stroke-width: 0.75;"/>
<line x1="682.88" y1="556.16" x2="682.88" y2="563.36" style="stroke-width: 0.75;"/>
<line x1="747.79" y1="556.16" x2="747.79" y2="563.36" style="stroke-width: 0.75;"/>
<line x1="812.69" y1="556.16" x2="812.69" y2="563.36" style="stroke-width: 0.75;"/>
<line x1="877.60" y1="556.16" x2="877.60" y2="563.36" style="stroke-width: 0.75;"/>
<g><text x="553.07" y="582.08" text-anchor="middle" style="font-family: Arial;font-size: 12.00px;" textLength="16.68px" lengthAdjust="spacingAndGlyphs">0.1</text></g>
<g><text x="617.98" y="582.08" text-anchor="middle" style="font-family: Arial;font-size: 12.00px;" textLength="16.68px" lengthAdjust="spacingAndGlyphs">0.2</text></g>
<g><text x="682.88" y="582.08" text-anchor="middle" style="font-family: Arial;font-size: 12.00px;" textLength="16.68px" lengthAdjust="spacingAndGlyphs">0.3</text></g>
<g><text x="747.79" y="582.08" text-anchor="middle" style="font-family: Arial;font-size: 12.00px;" textLength="16.68px" lengthAdjust="spacingAndGlyphs">0.4</text></g>
<g><text x="812.69" y="582.08" text-anchor="middle" style="font-family: Arial;font-size: 12.00px;" textLength="16.68px" lengthAdjust="spacingAndGlyphs">0.5</text></g>
<g><text x="877.60" y="582.08" text-anchor="middle" style="font-family: Arial;font-size: 12.00px;" textLength="16.68px" lengthAdjust="spacingAndGlyphs">0.6</text></g>
<line x1="519.84" y1="537.75" x2="519.84" y2="72.80" style="stroke-width: 0.75;"/>
<line x1="519.84" y1="537.75" x2="512.64" y2="537.75" style="stroke-width: 0.75;"/>
<line x1="519.84" y1="444.76" x2="512.64" y2="444.76" style="stroke-width: 0.75;"/>
<line x1="519.84" y1="351.77" x2="512.64" y2="351.77" style="stroke-width: 0.75;"/>
<line x1="519.84" y1="258.78" x2="512.64" y2="258.78" style="stroke-width: 0.75;"/>
<line x1="519.84" y1="165.79" x2="512.64" y2="165.79" style="stroke-width: 0.75;"/>
<line x1="519.84" y1="72.80" x2="512.64" y2="72.80" style="stroke-width: 0.75;"/>
<g><text transform="translate(502.56,537.75) rotate(-90.00)" text-anchor="middle" style="font-family: Arial;font-size: 12.00px;" textLength="6.67px" lengthAdjust="spacingAndGlyphs">0</text></g>
<g><text transform="translate(502.56,444.76) rotate(-90.00)" text-anchor="middle" style="font-family: Arial;font-size: 12.00px;" textLength="13.35px" lengthAdjust="spacingAndGlyphs">20</text></g>
<g><text transform="translate(502.56,351.77) rotate(-90.00)" text-anchor="middle" style="font-family: Arial;font-size: 12.00px;" textLength="13.35px" lengthAdjust="spacingAndGlyphs">40</text></g>
<g><text transform="translate(502.56,258.78) rotate(-90.00)" text-anchor="middle" style="font-family: Arial;font-size: 12.00px;" textLength="13.35px" lengthAdjust="spacingAndGlyphs">60</text></g>
<g><text transform="translate(502.56,165.79) rotate(-90.00)" text-anchor="middle" style="font-family: Arial;font-size: 12.00px;" textLength="13.35px" lengthAdjust="spacingAndGlyphs">80</text></g>
<g><text transform="translate(502.56,72.80) rotate(-90.00)" text-anchor="middle" style="font-family: Arial;font-size: 12.00px;" textLength="20.02px" lengthAdjust="spacingAndGlyphs">100</text></g>
</g><g clip-path="url(#c8)">
<rect x="533.60" y="528.45" width="6.49" height="9.30" style="stroke-width: 0.75;fill: #FF0000;"/>
<rect x="540.09" y="505.20" width="6.49" height="32.55" style="stroke-width: 0.75;fill: #FF0000;"/>
<rect x="546.58" y="500.55" width="6.49" height="37.20" style="stroke-width: 0.75;fill: #FF0000;"/>
<rect x="553.07" y="477.31" width="6.49" height="60.44" style="stroke-width: 0.75;fill: #FF0000;"/>
<rect x="559.56" y="407.56" width="6.49" height="130.18" style="stroke-width: 0.75;fill: #FF0000;"/>
<rect x="566.05" y="328.52" width="6.49" height="209.23" style="stroke-width: 0.75;fill: #FF0000;"/>
<rect x="572.54" y="282.03" width="6.49" height="255.72" style="stroke-width: 0.75;fill: #FF0000;"/>
<rect x="579.03" y="212.29" width="6.49" height="325.46" style="stroke-width: 0.75;fill: #FF0000;"/>
<rect x="585.52" y="258.78" width="6.49" height="278.97" style="stroke-width: 0.75;fill: #FF0000;"/>
<rect x="592.02" y="198.34" width="6.49" height="339.41" style="stroke-width: 0.75;fill: #FF0000;"/>
<rect x="598.51" y="77.45" width="6.49" height="460.30" style="stroke-width: 0.75;fill: #FF0000;"/>
<rect x="605.00" y="151.84" width="6.49" height="385.90" style="stroke-width: 0.75;fill: #FF0000;"/>
<rect x="611.49" y="179.74" width="6.49" height="358.01" style="stroke-width: 0.75;fill: #FF0000;"/>
<rect x="617.98" y="216.94" width="6.49" height="320.81" style="stroke-width: 0.75;fill: #FF0000;"/>
<rect x="624.47" y="254.13" width="6.49" height="283.62" style="stroke-width: 0.75;fill: #FF0000;"/>
<rect x="630.96" y="351.77" width="6.49" height="185.98" style="stroke-width: 0.75;fill: #FF0000;"/>
<rect x="637.45" y="384.32" width="6.49" height="153.43" style="stroke-width: 0.75;fill: #FF0000;"/>
<rect x="643.94" y="342.47" width="6.49" height="195.28" style="stroke-width: 0.75;fill: #FF0000;"/>
<rect x="650.43" y="384.32" width="6.49" height="153.43" style="stroke-width: 0.75;fill: #FF0000;"/>
<rect x="656.92" y="421.51" width="6.49" height="116.24" style="stroke-width: 0.75;fill: #FF0000;"/>
<rect x="663.41" y="435.46" width="6.49" height="102.29" style="stroke-width: 0.75;fill: #FF0000;"/>
<rect x="669.90" y="495.90" width="6.49" height="41.85" style="stroke-width: 0.75;fill: #FF0000;"/>
<rect x="676.39" y="514.50" width="6.49" height="23.25" style="stroke-width: 0.75;fill: #FF0000;"/>
<rect x="682.88" y="519.15" width="6.49" height="18.60" style="stroke-width: 0.75;fill: #FF0000;"/>
<rect x="689.37" y="509.85" width="6.49" height="27.90" style="stroke-width: 0.75;fill: #FF0000;"/>
<rect x="695.86" y="500.55" width="6.49" height="37.20" style="stroke-width: 0.75;fill: #FF0000;"/>
<rect x="702.35" y="519.15" width="6.49" height="18.60" style="stroke-width: 0.75;fill: #FF0000;"/>
<rect x="708.85" y="523.80" width="6.49" height="13.95" style="stroke-width: 0.75;fill: #FF0000;"/>
<rect x="715.34" y="519.15" width="6.49" height="18.60" style="stroke-width: 0.75;fill: #FF0000;"/>
<rect x="721.83" y="533.10" width="6.49" height="4.65" style="stroke-width: 0.75;fill: #FF0000;"/>
<rect x="728.32" y="519.15" width="6.49" height="18.60" style="stroke-width: 0.75;fill: #FF0000;"/>
<rect x="734.81" y="533.10" width="6.49" height="4.65" style="stroke-width: 0.75;fill: #FF0000;"/>
<rect x="741.30" y="528.45" width="6.49" height="9.30" style="stroke-width: 0.75;fill: #FF0000;"/>
<rect x="747.79" y="537.75" width="6.49" height="0.00" style="stroke-width: 0.75;fill: #FF0000;"/>
<rect x="754.28" y="533.10" width="6.49" height="4.65" style="stroke-width: 0.75;fill: #FF0000;"/>
<rect x="760.77" y="537.75" width="6.49" height="0.00" style="stroke-width: 0.75;fill: #FF0000;"/>
<rect x="767.26" y="533.10" width="6.49" height="4.65" style="stroke-width: 0.75;fill: #FF0000;"/>
<rect x="773.75" y="537.75" width="6.49" height="0.00" style="stroke-width: 0.75;fill: #FF0000;"/>
<rect x="780.24" y="537.75" width="6.49" height="0.00" style="stroke-width: 0.75;fill: #FF0000;"/>
<rect x="786.73" y="533.10" width="6.49" height="4.65" style="stroke-width: 0.75;fill: #FF0000;"/>
<rect x="793.22" y="537.75" width="6.49" height="0.00" style="stroke-width: 0.75;fill: #FF0000;"/>
<rect x="799.71" y="537.75" width="6.49" height="0.00" style="stroke-width: 0.75;fill: #FF0000;"/>
<rect x="806.20" y="537.75" width="6.49" height="0.00" style="stroke-width: 0.75;fill: #FF0000;"/>
<rect x="812.69" y="537.75" width="6.49" height="0.00" style="stroke-width: 0.75;fill: #FF0000;"/>
<rect x="819.18" y="537.75" width="6.49" height="0.00" style="stroke-width: 0.75;fill: #FF0000;"/>
<rect x="825.68" y="537.75" width="6.49" height="0.00" style="stroke-width: 0.75;fill: #FF0000;"/>
<rect x="832.17" y="537.75" width="6.49" height="0.00" style="stroke-width: 0.75;fill: #FF0000;"/>
<rect x="838.66" y="537.75" width="6.49" height="0.00" style="stroke-width: 0.75;fill: #FF0000;"/>
<rect x="845.15" y="537.75" width="6.49" height="0.00" style="stroke-width: 0.75;fill: #FF0000;"/>
<rect x="851.64" y="537.75" width="6.49" height="0.00" style="stroke-width: 0.75;fill: #FF0000;"/>
<rect x="858.13" y="537.75" width="6.49" height="0.00" style="stroke-width: 0.75;fill: #FF0000;"/>
<rect x="864.62" y="537.75" width="6.49" height="0.00" style="stroke-width: 0.75;fill: #FF0000;"/>
<rect x="871.11" y="533.10" width="6.49" height="4.65" style="stroke-width: 0.75;fill: #FF0000;"/>
<line x1="617.98" y1="556.16" x2="617.98" y2="59.04" style="stroke-width: 0.75;stroke: #00FF00; stroke-dasharray: 4.00, 4.00;"/>
<rect x="684.02" y="59.04" width="207.34" height="115.68" style="stroke-width: 0.75;fill: #FFFFFF;"/>
<rect x="709.38" y="80.73" width="20.29" height="14.46" style="stroke-width: 0.75;fill: #4682B4;"/>
<rect x="709.38" y="109.65" width="20.29" height="14.46" style="stroke-width: 0.75;fill: #FF0000;"/>
<rect x="709.38" y="138.57" width="20.29" height="14.46" style="stroke-width: 0.75;fill: #00FF00;"/>
<g><text x="755.03" y="92.27" style="font-family: Arial;font-size: 12.00px;" textLength="49.34px" lengthAdjust="spacingAndGlyphs">Gini MLE</text></g>
<g><text x="755.03" y="121.19" style="font-family: Arial;font-size: 12.00px;" textLength="52.66px" lengthAdjust="spacingAndGlyphs">Gini MME</text></g>
<g><text x="755.03" y="150.11" style="font-family: Arial;font-size: 12.00px;" textLength="49.34px" lengthAdjust="spacingAndGlyphs">True Gini</text></g>
</g>
</svg>