<svg xmlns="http://www.w3.org/2000/svg" xmlns:xlink="http://www.w3.org/1999/xlink" class="httpgd" width="1152.00" height="787.00" viewBox="0 0 921.60 629.60">
<defs>
  <style type='text/css'><![CDATA[
    .httpgd line, .httpgd polyline, .httpgd polygon, .httpgd path, .httpgd rect, .httpgd circle {
      fill: none;
      stroke: #000000;
      stroke-linecap: round;
      stroke-linejoin: round;
      stroke-miterlimit: 10.00;
    }
  ]]></style>
<clipPath id="c0"><rect x="0.00" y="0.00" width="921.60" height="629.60"/></clipPath>
<clipPath id="c1"><rect x="48.43" y="5.48" width="803.46" height="592.39"/></clipPath>
<clipPath id="c2"><rect x="0.00" y="0.00" width="921.60" height="629.60"/></clipPath>
</defs>
<rect width="100%" height="100%" style="stroke: none;fill: #FFFFFF;"/>
<g clip-path="url(#c0)">
<rect x="0.00" y="0.00" width="921.60" height="629.60" style="stroke-width: 1.07;stroke: #FFFFFF;fill: #FFFFFF;"/>
</g><g clip-path="url(#c1)">
<rect x="48.43" y="5.48" width="803.46" height="592.39" style="stroke-width: 1.07;stroke: none;fill: #EBEBEB;"/>
<polyline points="48.43,561.37 851.89,561.37" style="stroke-width: 0.53;stroke: #FFFFFF;stroke-linecap: butt;"/>
<polyline points="48.43,413.97 851.89,413.97" style="stroke-width: 0.53;stroke: #FFFFFF;stroke-linecap: butt;"/>
<polyline points="48.43,266.56 851.89,266.56" style="stroke-width: 0.53;stroke: #FFFFFF;stroke-linecap: butt;"/>
<polyline points="48.43,119.15 851.89,119.15" style="stroke-width: 0.53;stroke: #FFFFFF;stroke-linecap: butt;"/>
<polyline points="130.60,597.87 130.60,5.48" style="stroke-width: 0.53;stroke: #FFFFFF;stroke-linecap: butt;"/>
<polyline points="282.77,597.87 282.77,5.48" style="stroke-width: 0.53;stroke: #FFFFFF;stroke-linecap: butt;"/>
<polyline points="434.94,597.87 434.94,5.48" style="stroke-width: 0.53;stroke: #FFFFFF;stroke-linecap: butt;"/>
<polyline points="587.11,597.87 587.11,5.48" style="stroke-width: 0.53;stroke: #FFFFFF;stroke-linecap: butt;"/>
<polyline points="739.28,597.87 739.28,5.48" style="stroke-width: 0.53;stroke: #FFFFFF;stroke-linecap: butt;"/>
<polyline points="48.43,487.67 851.89,487.67" style="stroke-width: 1.07;stroke: #FFFFFF;stroke-linecap: butt;"/>
<polyline points="48.43,340.26 851.89,340.26" style="stroke-width: 1.07;stroke: #FFFFFF;stroke-linecap: butt;"/>
<polyline points="48.43,192.85 851.89,192.85" style="stroke-width: 1.07;stroke: #FFFFFF;stroke-linecap: butt;"/>
<polyline points="48.43,45.44 851.89,45.44" style="stroke-width: 1.07;stroke: #FFFFFF;stroke-linecap: butt;"/>
<polyline points="54.52,597.87 54.52,5.48" style="stroke-width: 1.07;stroke: #FFFFFF;stroke-linecap: butt;"/>
<polyline points="206.69,597.87 206.69,5.48" style="stroke-width: 1.07;stroke: #FFFFFF;stroke-linecap: butt;"/>
<polyline points="358.86,597.87 358.86,5.48" style="stroke-width: 1.07;stroke: #FFFFFF;stroke-linecap: butt;"/>
<polyline points="511.03,597.87 511.03,5.48" style="stroke-width: 1.07;stroke: #FFFFFF;stroke-linecap: butt;"/>
<polyline points="663.20,597.87 663.20,5.48" style="stroke-width: 1.07;stroke: #FFFFFF;stroke-linecap: butt;"/>
<polyline points="815.37,597.87 815.37,5.48" style="stroke-width: 1.07;stroke: #FFFFFF;stroke-linecap: butt;"/>
<circle cx="84.95" cy="570.94" r="1.95" style="stroke-width: 0.71;stroke: #F8766D;fill: #F8766D;"/>
<circle cx="115.39" cy="213.36" r="1.95" style="stroke-width: 0.71;stroke: #F8766D;fill: #F8766D;"/>
<circle cx="145.82" cy="276.37" r="1.95" style="stroke-width: 0.71;stroke: #F8766D;fill: #F8766D;"/>
<circle cx="176.25" cy="186.67" r="1.95" style="stroke-width: 0.71;stroke: #F8766D;fill: #F8766D;"/>
<circle cx="206.69" cy="158.51" r="1.95" style="stroke-width: 0.71;stroke: #F8766D;fill: #F8766D;"/>
<circle cx="282.77" cy="80.62" r="1.95" style="stroke-width: 0.71;stroke: #F8766D;fill: #F8766D;"/>
<circle cx="358.86" cy="141.57" r="1.95" style="stroke-width: 0.71;stroke: #F8766D;fill: #F8766D;"/>
<circle cx="511.03" cy="61.29" r="1.95" style="stroke-width: 0.71;stroke: #F8766D;fill: #F8766D;"/>
<circle cx="663.20" cy="61.35" r="1.95" style="stroke-width: 0.71;stroke: #F8766D;fill: #F8766D;"/>
<circle cx="815.37" cy="46.44" r="1.95" style="stroke-width: 0.71;stroke: #F8766D;fill: #F8766D;"/>
<circle cx="84.95" cy="303.76" r="1.95" style="stroke-width: 0.71;stroke: #00BFC4;fill: #00BFC4;"/>
<circle cx="115.39" cy="89.56" r="1.95" style="stroke-width: 0.71;stroke: #00BFC4;fill: #00BFC4;"/>
<circle cx="145.82" cy="213.95" r="1.95" style="stroke-width: 0.71;stroke: #00BFC4;fill: #00BFC4;"/>
<circle cx="176.25" cy="143.73" r="1.95" style="stroke-width: 0.71;stroke: #00BFC4;fill: #00BFC4;"/>
<circle cx="206.69" cy="130.60" r="1.95" style="stroke-width: 0.71;stroke: #00BFC4;fill: #00BFC4;"/>
<circle cx="282.77" cy="49.02" r="1.95" style="stroke-width: 0.71;stroke: #00BFC4;fill: #00BFC4;"/>
<circle cx="358.86" cy="128.73" r="1.95" style="stroke-width: 0.71;stroke: #00BFC4;fill: #00BFC4;"/>
<circle cx="511.03" cy="74.38" r="1.95" style="stroke-width: 0.71;stroke: #00BFC4;fill: #00BFC4;"/>
<circle cx="663.20" cy="37.09" r="1.95" style="stroke-width: 0.71;stroke: #00BFC4;fill: #00BFC4;"/>
<circle cx="815.37" cy="32.41" r="1.95" style="stroke-width: 0.71;stroke: #00BFC4;fill: #00BFC4;"/>
<polyline points="84.95,570.94 115.39,213.36 145.82,276.37 176.25,186.67 206.69,158.51 282.77,80.62 358.86,141.57 511.03,61.29 663.20,61.35 815.37,46.44" style="stroke-width: 1.07;stroke: #F8766D;stroke-linecap: butt;"/>
<polyline points="84.95,303.76 115.39,89.56 145.82,213.95 176.25,143.73 206.69,130.60 282.77,49.02 358.86,128.73 511.03,74.38 663.20,37.09 815.37,32.41" style="stroke-width: 1.07;stroke: #00BFC4;stroke-linecap: butt;"/>
</g><g clip-path="url(#c2)">
<g><text x="43.50" y="490.82" text-anchor="end" style="font-family: Arial;font-size: 8.80px;fill: #4D4D4D;" textLength="24.96px" lengthAdjust="spacingAndGlyphs">-0.009</text></g>
<g><text x="43.50" y="343.42" text-anchor="end" style="font-family: Arial;font-size: 8.80px;fill: #4D4D4D;" textLength="24.96px" lengthAdjust="spacingAndGlyphs">-0.006</text></g>
<g><text x="43.50" y="196.01" text-anchor="end" style="font-family: Arial;font-size: 8.80px;fill: #4D4D4D;" textLength="24.96px" lengthAdjust="spacingAndGlyphs">-0.003</text></g>
<g><text x="43.50" y="48.60" text-anchor="end" style="font-family: Arial;font-size: 8.80px;fill: #4D4D4D;" textLength="22.02px" lengthAdjust="spacingAndGlyphs">0.000</text></g>
<polyline points="45.69,487.67 48.43,487.67" style="stroke-width: 1.07;stroke: #333333;stroke-linecap: butt;"/>
<polyline points="45.69,340.26 48.43,340.26" style="stroke-width: 1.07;stroke: #333333;stroke-linecap: butt;"/>
<polyline points="45.69,192.85 48.43,192.85" style="stroke-width: 1.07;stroke: #333333;stroke-linecap: butt;"/>
<polyline points="45.69,45.44 48.43,45.44" style="stroke-width: 1.07;stroke: #333333;stroke-linecap: butt;"/>
<polyline points="54.52,600.61 54.52,597.87" style="stroke-width: 1.07;stroke: #333333;stroke-linecap: butt;"/>
<polyline points="206.69,600.61 206.69,597.87" style="stroke-width: 1.07;stroke: #333333;stroke-linecap: butt;"/>
<polyline points="358.86,600.61 358.86,597.87" style="stroke-width: 1.07;stroke: #333333;stroke-linecap: butt;"/>
<polyline points="511.03,600.61 511.03,597.87" style="stroke-width: 1.07;stroke: #333333;stroke-linecap: butt;"/>
<polyline points="663.20,600.61 663.20,597.87" style="stroke-width: 1.07;stroke: #333333;stroke-linecap: butt;"/>
<polyline points="815.37,600.61 815.37,597.87" style="stroke-width: 1.07;stroke: #333333;stroke-linecap: butt;"/>
<g><text x="54.52" y="609.10" text-anchor="middle" style="font-family: Arial;font-size: 8.80px;fill: #4D4D4D;" textLength="4.90px" lengthAdjust="spacingAndGlyphs">0</text></g>
<g><text x="206.69" y="609.10" text-anchor="middle" style="font-family: Arial;font-size: 8.80px;fill: #4D4D4D;" textLength="14.69px" lengthAdjust="spacingAndGlyphs">100</text></g>
<g><text x="358.86" y="609.10" text-anchor="middle" style="font-family: Arial;font-size: 8.80px;fill: #4D4D4D;" textLength="14.69px" lengthAdjust="spacingAndGlyphs">200</text></g>
<g><text x="511.03" y="609.10" text-anchor="middle" style="font-family: Arial;font-size: 8.80px;fill: #4D4D4D;" textLength="14.69px" lengthAdjust="spacingAndGlyphs">300</text></g>
<g><text x="663.20" y="609.10" text-anchor="middle" style="font-family: Arial;font-size: 8.80px;fill: #4D4D4D;" textLength="14.69px" lengthAdjust="spacingAndGlyphs">400</text></g>
<g><text x="815.37" y="609.10" text-anchor="middle" style="font-family: Arial;font-size: 8.80px;fill: #4D4D4D;" textLength="14.69px" lengthAdjust="spacingAndGlyphs">500</text></g>
<g><text x="450.16" y="621.69" text-anchor="middle" style="font-family: Arial;font-size: 11.00px;" textLength="6.12px" lengthAdjust="spacingAndGlyphs">n</text></g>
<g><text transform="translate(13.37,301.67) rotate(-90.00)" text-anchor="middle" style="font-family: Arial;font-size: 11.00px;" textLength="20.18px" lengthAdjust="spacingAndGlyphs">bias</text></g>
<rect x="862.85" y="276.17" width="53.27" height="51.00" style="stroke-width: 1.07;stroke: none;fill: #FFFFFF;"/>
<rect x="868.33" y="287.13" width="17.28" height="17.28" style="stroke-width: 1.07;stroke: none;fill: #F2F2F2;"/>
<circle cx="876.97" cy="295.77" r="1.95" style="stroke-width: 0.71;stroke: #F8766D;fill: #F8766D;"/>
<line x1="870.05" y1="295.77" x2="883.88" y2="295.77" style="stroke-width: 1.07;stroke: #F8766D;stroke-linecap: butt;"/>
<rect x="868.33" y="304.41" width="17.28" height="17.28" style="stroke-width: 1.07;stroke: none;fill: #F2F2F2;"/>
<circle cx="876.97" cy="313.05" r="1.95" style="stroke-width: 0.71;stroke: #00BFC4;fill: #00BFC4;"/>
<line x1="870.05" y1="313.05" x2="883.88" y2="313.05" style="stroke-width: 1.07;stroke: #00BFC4;stroke-linecap: butt;"/>
<g><text x="891.09" y="298.93" style="font-family: Arial;font-size: 8.80px;" textLength="14.18px" lengthAdjust="spacingAndGlyphs">mle</text></g>
<g><text x="891.09" y="316.21" style="font-family: Arial;font-size: 8.80px;" textLength="19.56px" lengthAdjust="spacingAndGlyphs">mme</text></g>
</g>
</svg>