<svg xmlns="http://www.w3.org/2000/svg" xmlns:xlink="http://www.w3.org/1999/xlink" class="httpgd" width="1152.00" height="787.00" viewBox="0 0 921.60 629.60">
<defs>
  <style type='text/css'><![CDATA[
    .httpgd line, .httpgd polyline, .httpgd polygon, .httpgd path, .httpgd rect, .httpgd circle {
      fill: none;
      stroke: #000000;
      stroke-linecap: round;
      stroke-linejoin: round;
      stroke-miterlimit: 10.00;
    }
  ]]></style>
<clipPath id="c0"><rect x="0.00" y="0.00" width="921.60" height="629.60"/></clipPath>
<clipPath id="c1"><rect x="59.04" y="59.04" width="371.52" height="497.12"/></clipPath>
<clipPath id="c2"><rect x="0.00" y="0.00" width="921.60" height="629.60"/></clipPath>
<clipPath id="c3"><rect x="0.00" y="0.00" width="460.80" height="629.60"/></clipPath>
<clipPath id="c4"><rect x="0.00" y="0.00" width="921.60" height="629.60"/></clipPath>
<clipPath id="c5"><rect x="59.04" y="59.04" width="371.52" height="497.12"/></clipPath>
<clipPath id="c6"><rect x="519.84" y="59.04" width="371.52" height="497.12"/></clipPath>
<clipPath id="c7"><rect x="0.00" y="0.00" width="921.60" height="629.60"/></clipPath>
<clipPath id="c8"><rect x="460.80" y="0.00" width="460.80" height="629.60"/></clipPath>
<clipPath id="c9"><rect x="0.00" y="0.00" width="921.60" height="629.60"/></clipPath>
<clipPath id="c10"><rect x="519.84" y="59.04" width="371.52" height="497.12"/></clipPath>
</defs>
<rect width="100%" height="100%" style="stroke: none;fill: #FFFFFF;"/>
<g clip-path="url(#c0)">
</g><g clip-path="url(#c1)">
<polygon points="176.00,421.81 313.60,421.81 313.60,323.25 176.00,323.25" style="stroke-width: 0.75;stroke: none;fill: #BEBEBE;" />
<line x1="176.00" y1="376.41" x2="313.60" y2="376.41" style="stroke-width: 2.25;stroke-linecap: butt;"/>
<line x1="244.80" y1="537.75" x2="244.80" y2="421.81" style="stroke-width: 0.75; stroke-dasharray: 4.00, 4.00;"/>
<line x1="244.80" y1="175.40" x2="244.80" y2="323.25" style="stroke-width: 0.75; stroke-dasharray: 4.00, 4.00;"/>
<line x1="210.40" y1="537.75" x2="279.20" y2="537.75" style="stroke-width: 0.75;"/>
<line x1="210.40" y1="175.40" x2="279.20" y2="175.40" style="stroke-width: 0.75;"/>
<polygon points="176.00,421.81 313.60,421.81 313.60,323.25 176.00,323.25" style="stroke-width: 0.75;" />
<circle cx="244.80" cy="155.84" r="2.70" style="stroke-width: 0.75;"/>
<circle cx="244.80" cy="115.55" r="2.70" style="stroke-width: 0.75;"/>
<circle cx="244.80" cy="131.95" r="2.70" style="stroke-width: 0.75;"/>
<circle cx="244.80" cy="77.45" r="2.70" style="stroke-width: 0.75;"/>
<circle cx="244.80" cy="169.51" r="2.70" style="stroke-width: 0.75;"/>
<circle cx="244.80" cy="94.40" r="2.70" style="stroke-width: 0.75;"/>
<circle cx="244.80" cy="159.64" r="2.70" style="stroke-width: 0.75;"/>
<circle cx="244.80" cy="82.65" r="2.70" style="stroke-width: 0.75;"/>
<circle cx="244.80" cy="143.31" r="2.70" style="stroke-width: 0.75;"/>
<circle cx="244.80" cy="157.39" r="2.70" style="stroke-width: 0.75;"/>
</g><g clip-path="url(#c2)">
<line x1="59.04" y1="496.36" x2="59.04" y2="92.84" style="stroke-width: 0.75;"/>
<line x1="59.04" y1="496.36" x2="51.84" y2="496.36" style="stroke-width: 0.75;"/>
<line x1="59.04" y1="429.11" x2="51.84" y2="429.11" style="stroke-width: 0.75;"/>
<line x1="59.04" y1="361.86" x2="51.84" y2="361.86" style="stroke-width: 0.75;"/>
<line x1="59.04" y1="294.60" x2="51.84" y2="294.60" style="stroke-width: 0.75;"/>
<line x1="59.04" y1="227.35" x2="51.84" y2="227.35" style="stroke-width: 0.75;"/>
<line x1="59.04" y1="160.10" x2="51.84" y2="160.10" style="stroke-width: 0.75;"/>
<line x1="59.04" y1="92.84" x2="51.84" y2="92.84" style="stroke-width: 0.75;"/>
<g><text transform="translate(41.76,496.36) rotate(-90.00)" text-anchor="middle" style="font-family: Arial;font-size: 12.00px;" textLength="23.36px" lengthAdjust="spacingAndGlyphs">0.10</text></g>
<g><text transform="translate(41.76,429.11) rotate(-90.00)" text-anchor="middle" style="font-family: Arial;font-size: 12.00px;" textLength="23.36px" lengthAdjust="spacingAndGlyphs">0.15</text></g>
<g><text transform="translate(41.76,361.86) rotate(-90.00)" text-anchor="middle" style="font-family: Arial;font-size: 12.00px;" textLength="23.36px" lengthAdjust="spacingAndGlyphs">0.20</text></g>
<g><text transform="translate(41.76,294.60) rotate(-90.00)" text-anchor="middle" style="font-family: Arial;font-size: 12.00px;" textLength="23.36px" lengthAdjust="spacingAndGlyphs">0.25</text></g>
<g><text transform="translate(41.76,227.35) rotate(-90.00)" text-anchor="middle" style="font-family: Arial;font-size: 12.00px;" textLength="23.36px" lengthAdjust="spacingAndGlyphs">0.30</text></g>
<g><text transform="translate(41.76,160.10) rotate(-90.00)" text-anchor="middle" style="font-family: Arial;font-size: 12.00px;" textLength="23.36px" lengthAdjust="spacingAndGlyphs">0.35</text></g>
<g><text transform="translate(41.76,92.84) rotate(-90.00)" text-anchor="middle" style="font-family: Arial;font-size: 12.00px;" textLength="23.36px" lengthAdjust="spacingAndGlyphs">0.40</text></g>
</g><g clip-path="url(#c3)">
<g><text transform="translate(10.76,320.89) rotate(-90.00)" style="font-family: Arial;font-size: 12.00px;" textLength="9.33px" lengthAdjust="spacingAndGlyphs">G</text></g>
<g><text transform="translate(4.61,319.04) rotate(-90.00)" style="font-family: Arial;font-size: 12.00px;" textLength="5.63px" lengthAdjust="spacingAndGlyphs">^</text></g>
<g><text transform="translate(12.96,311.56) rotate(-90.00)" style="font-family: Arial;font-size: 8.40px;" textLength="6.99px" lengthAdjust="spacingAndGlyphs">M</text></g>
<g><text transform="translate(12.96,304.57) rotate(-90.00)" style="font-family: Arial;font-size: 8.40px;" textLength="4.67px" lengthAdjust="spacingAndGlyphs">L</text></g>
<g><text transform="translate(12.96,299.90) rotate(-90.00)" style="font-family: Arial;font-size: 8.40px;" textLength="5.59px" lengthAdjust="spacingAndGlyphs">E</text></g>
</g><g clip-path="url(#c4)">
<polygon points="59.04,556.16 430.56,556.16 430.56,59.04 59.04,59.04" style="stroke-width: 0.75;" />
</g><g clip-path="url(#c5)">
<line x1="59.04" y1="361.86" x2="430.56" y2="361.86" style="stroke-width: 0.75;stroke: #006400; stroke-dasharray: 4.00, 4.00;"/>
</g><g clip-path="url(#c6)">
<polygon points="636.80,446.02 774.40,446.02 774.40,367.68 636.80,367.68" style="stroke-width: 0.75;stroke: none;fill: #BEBEBE;" />
<line x1="636.80" y1="405.91" x2="774.40" y2="405.91" style="stroke-width: 2.25;stroke-linecap: butt;"/>
<line x1="705.60" y1="537.75" x2="705.60" y2="446.02" style="stroke-width: 0.75; stroke-dasharray: 4.00, 4.00;"/>
<line x1="705.60" y1="254.94" x2="705.60" y2="367.68" style="stroke-width: 0.75; stroke-dasharray: 4.00, 4.00;"/>
<line x1="671.20" y1="537.75" x2="740.00" y2="537.75" style="stroke-width: 0.75;"/>
<line x1="671.20" y1="254.94" x2="740.00" y2="254.94" style="stroke-width: 0.75;"/>
<polygon points="636.80,446.02 774.40,446.02 774.40,367.68 636.80,367.68" style="stroke-width: 0.75;" />
<circle cx="705.60" cy="140.97" r="2.70" style="stroke-width: 0.75;"/>
<circle cx="705.60" cy="218.96" r="2.70" style="stroke-width: 0.75;"/>
<circle cx="705.60" cy="77.45" r="2.70" style="stroke-width: 0.75;"/>
<circle cx="705.60" cy="107.76" r="2.70" style="stroke-width: 0.75;"/>
<circle cx="705.60" cy="148.90" r="2.70" style="stroke-width: 0.75;"/>
<circle cx="705.60" cy="237.59" r="2.70" style="stroke-width: 0.75;"/>
<circle cx="705.60" cy="248.95" r="2.70" style="stroke-width: 0.75;"/>
<circle cx="705.60" cy="137.56" r="2.70" style="stroke-width: 0.75;"/>
<circle cx="705.60" cy="132.04" r="2.70" style="stroke-width: 0.75;"/>
<circle cx="705.60" cy="190.78" r="2.70" style="stroke-width: 0.75;"/>
<circle cx="705.60" cy="248.30" r="2.70" style="stroke-width: 0.75;"/>
<circle cx="705.60" cy="124.47" r="2.70" style="stroke-width: 0.75;"/>
<circle cx="705.60" cy="189.06" r="2.70" style="stroke-width: 0.75;"/>
<circle cx="705.60" cy="242.25" r="2.70" style="stroke-width: 0.75;"/>
<circle cx="705.60" cy="202.97" r="2.70" style="stroke-width: 0.75;"/>
</g><g clip-path="url(#c7)">
<line x1="519.84" y1="507.50" x2="519.84" y2="87.10" style="stroke-width: 0.75;"/>
<line x1="519.84" y1="507.50" x2="512.64" y2="507.50" style="stroke-width: 0.75;"/>
<line x1="519.84" y1="402.40" x2="512.64" y2="402.40" style="stroke-width: 0.75;"/>
<line x1="519.84" y1="297.30" x2="512.64" y2="297.30" style="stroke-width: 0.75;"/>
<line x1="519.84" y1="192.20" x2="512.64" y2="192.20" style="stroke-width: 0.75;"/>
<line x1="519.84" y1="87.10" x2="512.64" y2="87.10" style="stroke-width: 0.75;"/>
<g><text transform="translate(502.56,507.50) rotate(-90.00)" text-anchor="middle" style="font-family: Arial;font-size: 12.00px;" textLength="16.68px" lengthAdjust="spacingAndGlyphs">0.1</text></g>
<g><text transform="translate(502.56,402.40) rotate(-90.00)" text-anchor="middle" style="font-family: Arial;font-size: 12.00px;" textLength="16.68px" lengthAdjust="spacingAndGlyphs">0.2</text></g>
<g><text transform="translate(502.56,297.30) rotate(-90.00)" text-anchor="middle" style="font-family: Arial;font-size: 12.00px;" textLength="16.68px" lengthAdjust="spacingAndGlyphs">0.3</text></g>
<g><text transform="translate(502.56,192.20) rotate(-90.00)" text-anchor="middle" style="font-family: Arial;font-size: 12.00px;" textLength="16.68px" lengthAdjust="spacingAndGlyphs">0.4</text></g>
<g><text transform="translate(502.56,87.10) rotate(-90.00)" text-anchor="middle" style="font-family: Arial;font-size: 12.00px;" textLength="16.68px" lengthAdjust="spacingAndGlyphs">0.5</text></g>
</g><g clip-path="url(#c8)">
<g><text transform="translate(471.56,322.05) rotate(-90.00)" style="font-family: Arial;font-size: 12.00px;" textLength="9.33px" lengthAdjust="spacingAndGlyphs">G</text></g>
<g><text transform="translate(465.41,320.20) rotate(-90.00)" style="font-family: Arial;font-size: 12.00px;" textLength="5.63px" lengthAdjust="spacingAndGlyphs">^</text></g>
<g><text transform="translate(473.76,312.72) rotate(-90.00)" style="font-family: Arial;font-size: 8.40px;" textLength="6.99px" lengthAdjust="spacingAndGlyphs">M</text></g>
<g><text transform="translate(473.76,305.73) rotate(-90.00)" style="font-family: Arial;font-size: 8.40px;" textLength="6.99px" lengthAdjust="spacingAndGlyphs">M</text></g>
<g><text transform="translate(473.76,298.74) rotate(-90.00)" style="font-family: Arial;font-size: 8.40px;" textLength="5.59px" lengthAdjust="spacingAndGlyphs">E</text></g>
</g><g clip-path="url(#c9)">
<polygon points="519.84,556.16 891.36,556.16 891.36,59.04 519.84,59.04" style="stroke-width: 0.75;" />
</g><g clip-path="url(#c10)">
<line x1="519.84" y1="402.40" x2="891.36" y2="402.40" style="stroke-width: 0.75;stroke: #006400; stroke-dasharray: 4.00, 4.00;"/>
</g>
</svg>