<svg xmlns="http://www.w3.org/2000/svg" xmlns:xlink="http://www.w3.org/1999/xlink" class="httpgd" width="1152.00" height="787.00" viewBox="0 0 921.60 629.60">
<defs>
  <style type='text/css'><![CDATA[
    .httpgd line, .httpgd polyline, .httpgd polygon, .httpgd path, .httpgd rect, .httpgd circle {
      fill: none;
      stroke: #000000;
      stroke-linecap: round;
      stroke-linejoin: round;
      stroke-miterlimit: 10.00;
    }
  ]]></style>
<clipPath id="c0"><rect x="0.00" y="0.00" width="921.60" height="629.60"/></clipPath>
<clipPath id="c1"><rect x="59.04" y="59.04" width="371.52" height="497.12"/></clipPath>
<clipPath id="c2"><rect x="0.00" y="0.00" width="460.80" height="629.60"/></clipPath>
<clipPath id="c3"><rect x="0.00" y="0.00" width="921.60" height="629.60"/></clipPath>
<clipPath id="c4"><rect x="59.04" y="59.04" width="371.52" height="497.12"/></clipPath>
<clipPath id="c5"><rect x="519.84" y="59.04" width="371.52" height="497.12"/></clipPath>
<clipPath id="c6"><rect x="460.80" y="0.00" width="460.80" height="629.60"/></clipPath>
<clipPath id="c7"><rect x="0.00" y="0.00" width="921.60" height="629.60"/></clipPath>
<clipPath id="c8"><rect x="519.84" y="59.04" width="371.52" height="497.12"/></clipPath>
</defs>
<rect width="100%" height="100%" style="stroke: none;fill: #FFFFFF;"/>
<g clip-path="url(#c0)">
</g><g clip-path="url(#c2)">
<g><text x="244.80" y="610.88" text-anchor="middle" style="font-family: Arial;font-size: 12.00px;" textLength="91.35px" lengthAdjust="spacingAndGlyphs">Gini MLE sample</text></g>
<g><text transform="translate(12.96,307.60) rotate(-90.00)" text-anchor="middle" style="font-family: Arial;font-size: 12.00px;" textLength="56.69px" lengthAdjust="spacingAndGlyphs">Frequency</text></g>
</g><g clip-path="url(#c3)">
<line x1="111.02" y1="556.16" x2="416.80" y2="556.16" style="stroke-width: 0.75;"/>
<line x1="111.02" y1="556.16" x2="111.02" y2="563.36" style="stroke-width: 0.75;"/>
<line x1="187.47" y1="556.16" x2="187.47" y2="563.36" style="stroke-width: 0.75;"/>
<line x1="263.91" y1="556.16" x2="263.91" y2="563.36" style="stroke-width: 0.75;"/>
<line x1="340.36" y1="556.16" x2="340.36" y2="563.36" style="stroke-width: 0.75;"/>
<line x1="416.80" y1="556.16" x2="416.80" y2="563.36" style="stroke-width: 0.75;"/>
<g><text x="111.02" y="582.08" text-anchor="middle" style="font-family: Arial;font-size: 12.00px;" textLength="16.68px" lengthAdjust="spacingAndGlyphs">0.1</text></g>
<g><text x="187.47" y="582.08" text-anchor="middle" style="font-family: Arial;font-size: 12.00px;" textLength="16.68px" lengthAdjust="spacingAndGlyphs">0.2</text></g>
<g><text x="263.91" y="582.08" text-anchor="middle" style="font-family: Arial;font-size: 12.00px;" textLength="16.68px" lengthAdjust="spacingAndGlyphs">0.3</text></g>
<g><text x="340.36" y="582.08" text-anchor="middle" style="font-family: Arial;font-size: 12.00px;" textLength="16.68px" lengthAdjust="spacingAndGlyphs">0.4</text></g>
<g><text x="416.80" y="582.08" text-anchor="middle" style="font-family: Arial;font-size: 12.00px;" textLength="16.68px" lengthAdjust="spacingAndGlyphs">0.5</text></g>
<line x1="59.04" y1="537.75" x2="59.04" y2="64.44" style="stroke-width: 0.75;"/>
<line x1="59.04" y1="537.75" x2="51.84" y2="537.75" style="stroke-width: 0.75;"/>
<line x1="59.04" y1="419.42" x2="51.84" y2="419.42" style="stroke-width: 0.75;"/>
<line x1="59.04" y1="301.09" x2="51.84" y2="301.09" style="stroke-width: 0.75;"/>
<line x1="59.04" y1="182.76" x2="51.84" y2="182.76" style="stroke-width: 0.75;"/>
<line x1="59.04" y1="64.44" x2="51.84" y2="64.44" style="stroke-width: 0.75;"/>
<g><text transform="translate(41.76,537.75) rotate(-90.00)" text-anchor="middle" style="font-family: Arial;font-size: 12.00px;" textLength="6.67px" lengthAdjust="spacingAndGlyphs">0</text></g>
<g><text transform="translate(41.76,419.42) rotate(-90.00)" text-anchor="middle" style="font-family: Arial;font-size: 12.00px;" textLength="20.02px" lengthAdjust="spacingAndGlyphs">100</text></g>
<g><text transform="translate(41.76,301.09) rotate(-90.00)" text-anchor="middle" style="font-family: Arial;font-size: 12.00px;" textLength="20.02px" lengthAdjust="spacingAndGlyphs">200</text></g>
<g><text transform="translate(41.76,182.76) rotate(-90.00)" text-anchor="middle" style="font-family: Arial;font-size: 12.00px;" textLength="20.02px" lengthAdjust="spacingAndGlyphs">300</text></g>
<g><text transform="translate(41.76,64.44) rotate(-90.00)" text-anchor="middle" style="font-family: Arial;font-size: 12.00px;" textLength="20.02px" lengthAdjust="spacingAndGlyphs">400</text></g>
</g><g clip-path="url(#c4)">
<rect x="72.80" y="521.18" width="38.22" height="16.57" style="stroke-width: 0.75;fill: #4682B4;"/>
<rect x="111.02" y="303.46" width="38.22" height="234.29" style="stroke-width: 0.75;fill: #4682B4;"/>
<rect x="149.24" y="77.45" width="38.22" height="460.30" style="stroke-width: 0.75;fill: #4682B4;"/>
<rect x="187.47" y="226.55" width="38.22" height="311.20" style="stroke-width: 0.75;fill: #4682B4;"/>
<rect x="225.69" y="426.52" width="38.22" height="111.23" style="stroke-width: 0.75;fill: #4682B4;"/>
<rect x="263.91" y="502.25" width="38.22" height="35.50" style="stroke-width: 0.75;fill: #4682B4;"/>
<rect x="302.13" y="525.92" width="38.22" height="11.83" style="stroke-width: 0.75;fill: #4682B4;"/>
<rect x="340.36" y="536.56" width="38.22" height="1.18" style="stroke-width: 0.75;fill: #4682B4;"/>
<rect x="378.58" y="536.56" width="38.22" height="1.18" style="stroke-width: 0.75;fill: #4682B4;"/>
</g><g clip-path="url(#c6)">
<g><text x="705.60" y="34.70" text-anchor="middle" style="font-family: Arial;font-size: 14.40px;font-weight: bold;" textLength="217.54px" lengthAdjust="spacingAndGlyphs">Histogram of gini_mme_sample</text></g>
<g><text x="705.60" y="610.88" text-anchor="middle" style="font-family: Arial;font-size: 12.00px;" textLength="94.67px" lengthAdjust="spacingAndGlyphs">Gini MME sample</text></g>
<g><text transform="translate(473.76,307.60) rotate(-90.00)" text-anchor="middle" style="font-family: Arial;font-size: 12.00px;" textLength="56.69px" lengthAdjust="spacingAndGlyphs">Frequency</text></g>
</g><g clip-path="url(#c7)">
<line x1="571.82" y1="556.16" x2="877.60" y2="556.16" style="stroke-width: 0.75;"/>
<line x1="571.82" y1="556.16" x2="571.82" y2="563.36" style="stroke-width: 0.75;"/>
<line x1="648.27" y1="556.16" x2="648.27" y2="563.36" style="stroke-width: 0.75;"/>
<line x1="724.71" y1="556.16" x2="724.71" y2="563.36" style="stroke-width: 0.75;"/>
<line x1="801.16" y1="556.16" x2="801.16" y2="563.36" style="stroke-width: 0.75;"/>
<line x1="877.60" y1="556.16" x2="877.60" y2="563.36" style="stroke-width: 0.75;"/>
<g><text x="571.82" y="582.08" text-anchor="middle" style="font-family: Arial;font-size: 12.00px;" textLength="16.68px" lengthAdjust="spacingAndGlyphs">0.1</text></g>
<g><text x="648.27" y="582.08" text-anchor="middle" style="font-family: Arial;font-size: 12.00px;" textLength="16.68px" lengthAdjust="spacingAndGlyphs">0.2</text></g>
<g><text x="724.71" y="582.08" text-anchor="middle" style="font-family: Arial;font-size: 12.00px;" textLength="16.68px" lengthAdjust="spacingAndGlyphs">0.3</text></g>
<g><text x="801.16" y="582.08" text-anchor="middle" style="font-family: Arial;font-size: 12.00px;" textLength="16.68px" lengthAdjust="spacingAndGlyphs">0.4</text></g>
<g><text x="877.60" y="582.08" text-anchor="middle" style="font-family: Arial;font-size: 12.00px;" textLength="16.68px" lengthAdjust="spacingAndGlyphs">0.5</text></g>
<line x1="519.84" y1="537.75" x2="519.84" y2="78.60" style="stroke-width: 0.75;"/>
<line x1="519.84" y1="537.75" x2="512.64" y2="537.75" style="stroke-width: 0.75;"/>
<line x1="519.84" y1="422.96" x2="512.64" y2="422.96" style="stroke-width: 0.75;"/>
<line x1="519.84" y1="308.17" x2="512.64" y2="308.17" style="stroke-width: 0.75;"/>
<line x1="519.84" y1="193.39" x2="512.64" y2="193.39" style="stroke-width: 0.75;"/>
<line x1="519.84" y1="78.60" x2="512.64" y2="78.60" style="stroke-width: 0.75;"/>
<g><text transform="translate(502.56,537.75) rotate(-90.00)" text-anchor="middle" style="font-family: Arial;font-size: 12.00px;" textLength="6.67px" lengthAdjust="spacingAndGlyphs">0</text></g>
<g><text transform="translate(502.56,422.96) rotate(-90.00)" text-anchor="middle" style="font-family: Arial;font-size: 12.00px;" textLength="20.02px" lengthAdjust="spacingAndGlyphs">100</text></g>
<g><text transform="translate(502.56,308.17) rotate(-90.00)" text-anchor="middle" style="font-family: Arial;font-size: 12.00px;" textLength="20.02px" lengthAdjust="spacingAndGlyphs">200</text></g>
<g><text transform="translate(502.56,193.39) rotate(-90.00)" text-anchor="middle" style="font-family: Arial;font-size: 12.00px;" textLength="20.02px" lengthAdjust="spacingAndGlyphs">300</text></g>
<g><text transform="translate(502.56,78.60) rotate(-90.00)" text-anchor="middle" style="font-family: Arial;font-size: 12.00px;" textLength="20.02px" lengthAdjust="spacingAndGlyphs">400</text></g>
</g><g clip-path="url(#c8)">
<rect x="533.60" y="520.53" width="38.22" height="17.22" style="stroke-width: 0.75;fill: #FF0000;"/>
<rect x="571.82" y="329.98" width="38.22" height="207.76" style="stroke-width: 0.75;fill: #FF0000;"/>
<rect x="610.04" y="77.45" width="38.22" height="460.30" style="stroke-width: 0.75;fill: #FF0000;"/>
<rect x="648.27" y="227.82" width="38.22" height="309.93" style="stroke-width: 0.75;fill: #FF0000;"/>
<rect x="686.49" y="429.85" width="38.22" height="107.90" style="stroke-width: 0.75;fill: #FF0000;"/>
<rect x="724.71" y="501.02" width="38.22" height="36.73" style="stroke-width: 0.75;fill: #FF0000;"/>
<rect x="762.93" y="530.86" width="38.22" height="6.89" style="stroke-width: 0.75;fill: #FF0000;"/>
<rect x="801.16" y="537.75" width="38.22" height="0.00" style="stroke-width: 0.75;fill: #FF0000;"/>
<rect x="839.38" y="536.60" width="38.22" height="1.15" style="stroke-width: 0.75;fill: #FF0000;"/>
<rect x="771.49" y="59.04" width="119.87" height="58.28" style="stroke-width: 0.75;fill: #FFFFFF;"/>
<rect x="791.83" y="73.61" width="16.28" height="9.71" style="stroke-width: 0.75;fill: #4682B4;"/>
<rect x="791.83" y="93.03" width="16.28" height="9.71" style="stroke-width: 0.75;fill: #FF0000;"/>
<g><text x="828.45" y="82.77" style="font-family: Arial;font-size: 12.00px;" textLength="24.67px" lengthAdjust="spacingAndGlyphs">MLE</text></g>
<g><text x="828.45" y="102.20" style="font-family: Arial;font-size: 12.00px;" textLength="27.99px" lengthAdjust="spacingAndGlyphs">MME</text></g>
</g>
</svg>