<svg xmlns="http://www.w3.org/2000/svg" xmlns:xlink="http://www.w3.org/1999/xlink" class="httpgd" width="1152.00" height="787.00" viewBox="0 0 921.60 629.60">
<defs>
  <style type='text/css'><![CDATA[
    .httpgd line, .httpgd polyline, .httpgd polygon, .httpgd path, .httpgd rect, .httpgd circle {
      fill: none;
      stroke: #000000;
      stroke-linecap: round;
      stroke-linejoin: round;
      stroke-miterlimit: 10.00;
    }
  ]]></style>
<clipPath id="c0"><rect x="0.00" y="0.00" width="921.60" height="629.60"/></clipPath>
<clipPath id="c1"><rect x="45.50" y="5.48" width="806.39" height="592.39"/></clipPath>
<clipPath id="c2"><rect x="0.00" y="0.00" width="921.60" height="629.60"/></clipPath>
</defs>
<rect width="100%" height="100%" style="stroke: none;fill: #FFFFFF;"/>
<g clip-path="url(#c0)">
<rect x="-0.00" y="0.00" width="921.60" height="629.60" style="stroke-width: 1.07;stroke: #FFFFFF;fill: #FFFFFF;"/>
</g><g clip-path="url(#c1)">
<rect x="45.50" y="5.48" width="806.39" height="592.39" style="stroke-width: 1.07;stroke: none;fill: #EBEBEB;"/>
<polyline points="45.50,502.03 851.89,502.03" style="stroke-width: 0.53;stroke: #FFFFFF;stroke-linecap: butt;"/>
<polyline points="45.50,322.74 851.89,322.74" style="stroke-width: 0.53;stroke: #FFFFFF;stroke-linecap: butt;"/>
<polyline points="45.50,143.44 851.89,143.44" style="stroke-width: 0.53;stroke: #FFFFFF;stroke-linecap: butt;"/>
<polyline points="127.97,597.87 127.97,5.48" style="stroke-width: 0.53;stroke: #FFFFFF;stroke-linecap: butt;"/>
<polyline points="280.70,597.87 280.70,5.48" style="stroke-width: 0.53;stroke: #FFFFFF;stroke-linecap: butt;"/>
<polyline points="433.42,597.87 433.42,5.48" style="stroke-width: 0.53;stroke: #FFFFFF;stroke-linecap: butt;"/>
<polyline points="586.15,597.87 586.15,5.48" style="stroke-width: 0.53;stroke: #FFFFFF;stroke-linecap: butt;"/>
<polyline points="738.87,597.87 738.87,5.48" style="stroke-width: 0.53;stroke: #FFFFFF;stroke-linecap: butt;"/>
<polyline points="45.50,591.68 851.89,591.68" style="stroke-width: 1.07;stroke: #FFFFFF;stroke-linecap: butt;"/>
<polyline points="45.50,412.39 851.89,412.39" style="stroke-width: 1.07;stroke: #FFFFFF;stroke-linecap: butt;"/>
<polyline points="45.50,233.09 851.89,233.09" style="stroke-width: 1.07;stroke: #FFFFFF;stroke-linecap: butt;"/>
<polyline points="45.50,53.79 851.89,53.79" style="stroke-width: 1.07;stroke: #FFFFFF;stroke-linecap: butt;"/>
<polyline points="51.61,597.87 51.61,5.48" style="stroke-width: 1.07;stroke: #FFFFFF;stroke-linecap: butt;"/>
<polyline points="204.33,597.87 204.33,5.48" style="stroke-width: 1.07;stroke: #FFFFFF;stroke-linecap: butt;"/>
<polyline points="357.06,597.87 357.06,5.48" style="stroke-width: 1.07;stroke: #FFFFFF;stroke-linecap: butt;"/>
<polyline points="509.78,597.87 509.78,5.48" style="stroke-width: 1.07;stroke: #FFFFFF;stroke-linecap: butt;"/>
<polyline points="662.51,597.87 662.51,5.48" style="stroke-width: 1.07;stroke: #FFFFFF;stroke-linecap: butt;"/>
<polyline points="815.23,597.87 815.23,5.48" style="stroke-width: 1.07;stroke: #FFFFFF;stroke-linecap: butt;"/>
<circle cx="82.15" cy="73.52" r="1.95" style="stroke-width: 0.71;stroke: #F8766D;fill: #F8766D;"/>
<circle cx="112.70" cy="316.56" r="1.95" style="stroke-width: 0.71;stroke: #F8766D;fill: #F8766D;"/>
<circle cx="143.24" cy="417.64" r="1.95" style="stroke-width: 0.71;stroke: #F8766D;fill: #F8766D;"/>
<circle cx="173.79" cy="468.16" r="1.95" style="stroke-width: 0.71;stroke: #F8766D;fill: #F8766D;"/>
<circle cx="204.33" cy="495.39" r="1.95" style="stroke-width: 0.71;stroke: #F8766D;fill: #F8766D;"/>
<circle cx="280.70" cy="521.82" r="1.95" style="stroke-width: 0.71;stroke: #F8766D;fill: #F8766D;"/>
<circle cx="357.06" cy="545.22" r="1.95" style="stroke-width: 0.71;stroke: #F8766D;fill: #F8766D;"/>
<circle cx="509.78" cy="557.46" r="1.95" style="stroke-width: 0.71;stroke: #F8766D;fill: #F8766D;"/>
<circle cx="662.51" cy="565.31" r="1.95" style="stroke-width: 0.71;stroke: #F8766D;fill: #F8766D;"/>
<circle cx="815.23" cy="570.94" r="1.95" style="stroke-width: 0.71;stroke: #F8766D;fill: #F8766D;"/>
<circle cx="82.15" cy="32.41" r="1.95" style="stroke-width: 0.71;stroke: #00BFC4;fill: #00BFC4;"/>
<circle cx="112.70" cy="285.21" r="1.95" style="stroke-width: 0.71;stroke: #00BFC4;fill: #00BFC4;"/>
<circle cx="143.24" cy="382.95" r="1.95" style="stroke-width: 0.71;stroke: #00BFC4;fill: #00BFC4;"/>
<circle cx="173.79" cy="448.51" r="1.95" style="stroke-width: 0.71;stroke: #00BFC4;fill: #00BFC4;"/>
<circle cx="204.33" cy="460.50" r="1.95" style="stroke-width: 0.71;stroke: #00BFC4;fill: #00BFC4;"/>
<circle cx="280.70" cy="509.50" r="1.95" style="stroke-width: 0.71;stroke: #00BFC4;fill: #00BFC4;"/>
<circle cx="357.06" cy="526.43" r="1.95" style="stroke-width: 0.71;stroke: #00BFC4;fill: #00BFC4;"/>
<circle cx="509.78" cy="533.64" r="1.95" style="stroke-width: 0.71;stroke: #00BFC4;fill: #00BFC4;"/>
<circle cx="662.51" cy="552.27" r="1.95" style="stroke-width: 0.71;stroke: #00BFC4;fill: #00BFC4;"/>
<circle cx="815.23" cy="562.15" r="1.95" style="stroke-width: 0.71;stroke: #00BFC4;fill: #00BFC4;"/>
<polyline points="82.15,73.52 112.70,316.56 143.24,417.64 173.79,468.16 204.33,495.39 280.70,521.82 357.06,545.22 509.78,557.46 662.51,565.31 815.23,570.94" style="stroke-width: 1.07;stroke: #F8766D;stroke-linecap: butt;"/>
<polyline points="82.15,32.41 112.70,285.21 143.24,382.95 173.79,448.51 204.33,460.50 280.70,509.50 357.06,526.43 509.78,533.64 662.51,552.27 815.23,562.15" style="stroke-width: 1.07;stroke: #00BFC4;stroke-linecap: butt;"/>
</g><g clip-path="url(#c2)">
<g><text x="40.57" y="594.84" text-anchor="end" style="font-family: Arial;font-size: 8.80px;fill: #4D4D4D;" textLength="22.02px" lengthAdjust="spacingAndGlyphs">0.000</text></g>
<g><text x="40.57" y="415.54" text-anchor="end" style="font-family: Arial;font-size: 8.80px;fill: #4D4D4D;" textLength="22.02px" lengthAdjust="spacingAndGlyphs">0.001</text></g>
<g><text x="40.57" y="236.24" text-anchor="end" style="font-family: Arial;font-size: 8.80px;fill: #4D4D4D;" textLength="22.02px" lengthAdjust="spacingAndGlyphs">0.002</text></g>
<g><text x="40.57" y="56.94" text-anchor="end" style="font-family: Arial;font-size: 8.80px;fill: #4D4D4D;" textLength="22.02px" lengthAdjust="spacingAndGlyphs">0.003</text></g>
<polyline points="42.76,591.68 45.50,591.68" style="stroke-width: 1.07;stroke: #333333;stroke-linecap: butt;"/>
<polyline points="42.76,412.39 45.50,412.39" style="stroke-width: 1.07;stroke: #333333;stroke-linecap: butt;"/>
<polyline points="42.76,233.09 45.50,233.09" style="stroke-width: 1.07;stroke: #333333;stroke-linecap: butt;"/>
<polyline points="42.76,53.79 45.50,53.79" style="stroke-width: 1.07;stroke: #333333;stroke-linecap: butt;"/>
<polyline points="51.61,600.61 51.61,597.87" style="stroke-width: 1.07;stroke: #333333;stroke-linecap: butt;"/>
<polyline points="204.33,600.61 204.33,597.87" style="stroke-width: 1.07;stroke: #333333;stroke-linecap: butt;"/>
<polyline points="357.06,600.61 357.06,597.87" style="stroke-width: 1.07;stroke: #333333;stroke-linecap: butt;"/>
<polyline points="509.78,600.61 509.78,597.87" style="stroke-width: 1.07;stroke: #333333;stroke-linecap: butt;"/>
<polyline points="662.51,600.61 662.51,597.87" style="stroke-width: 1.07;stroke: #333333;stroke-linecap: butt;"/>
<polyline points="815.23,600.61 815.23,597.87" style="stroke-width: 1.07;stroke: #333333;stroke-linecap: butt;"/>
<g><text x="51.61" y="609.10" text-anchor="middle" style="font-family: Arial;font-size: 8.80px;fill: #4D4D4D;" textLength="4.90px" lengthAdjust="spacingAndGlyphs">0</text></g>
<g><text x="204.33" y="609.10" text-anchor="middle" style="font-family: Arial;font-size: 8.80px;fill: #4D4D4D;" textLength="14.69px" lengthAdjust="spacingAndGlyphs">100</text></g>
<g><text x="357.06" y="609.10" text-anchor="middle" style="font-family: Arial;font-size: 8.80px;fill: #4D4D4D;" textLength="14.69px" lengthAdjust="spacingAndGlyphs">200</text></g>
<g><text x="509.78" y="609.10" text-anchor="middle" style="font-family: Arial;font-size: 8.80px;fill: #4D4D4D;" textLength="14.69px" lengthAdjust="spacingAndGlyphs">300</text></g>
<g><text x="662.51" y="609.10" text-anchor="middle" style="font-family: Arial;font-size: 8.80px;fill: #4D4D4D;" textLength="14.69px" lengthAdjust="spacingAndGlyphs">400</text></g>
<g><text x="815.23" y="609.10" text-anchor="middle" style="font-family: Arial;font-size: 8.80px;fill: #4D4D4D;" textLength="14.69px" lengthAdjust="spacingAndGlyphs">500</text></g>
<g><text x="448.69" y="621.69" text-anchor="middle" style="font-family: Arial;font-size: 11.00px;" textLength="6.12px" lengthAdjust="spacingAndGlyphs">n</text></g>
<g><text transform="translate(13.37,301.67) rotate(-90.00)" text-anchor="middle" style="font-family: Arial;font-size: 11.00px;" textLength="96.63px" lengthAdjust="spacingAndGlyphs">mean squared error</text></g>
<rect x="862.85" y="276.17" width="53.27" height="51.00" style="stroke-width: 1.07;stroke: none;fill: #FFFFFF;"/>
<rect x="868.33" y="287.13" width="17.28" height="17.28" style="stroke-width: 1.07;stroke: none;fill: #F2F2F2;"/>
<circle cx="876.97" cy="295.77" r="1.95" style="stroke-width: 0.71;stroke: #F8766D;fill: #F8766D;"/>
<line x1="870.05" y1="295.77" x2="883.88" y2="295.77" style="stroke-width: 1.07;stroke: #F8766D;stroke-linecap: butt;"/>
<rect x="868.33" y="304.41" width="17.28" height="17.28" style="stroke-width: 1.07;stroke: none;fill: #F2F2F2;"/>
<circle cx="876.97" cy="313.05" r="1.95" style="stroke-width: 0.71;stroke: #00BFC4;fill: #00BFC4;"/>
<line x1="870.05" y1="313.05" x2="883.88" y2="313.05" style="stroke-width: 1.07;stroke: #00BFC4;stroke-linecap: butt;"/>
<g><text x="891.09" y="298.93" style="font-family: Arial;font-size: 8.80px;" textLength="14.18px" lengthAdjust="spacingAndGlyphs">mle</text></g>
<g><text x="891.09" y="316.21" style="font-family: Arial;font-size: 8.80px;" textLength="19.56px" lengthAdjust="spacingAndGlyphs">mme</text></g>
</g>
</svg>