<svg xmlns="http://www.w3.org/2000/svg" xmlns:xlink="http://www.w3.org/1999/xlink" class="httpgd" width="1536.00" height="967.00" viewBox="0 0 1228.80 773.60">
<defs>
  <style type='text/css'><![CDATA[
    .httpgd line, .httpgd polyline, .httpgd polygon, .httpgd path, .httpgd rect, .httpgd circle {
      fill: none;
      stroke: #000000;
      stroke-linecap: round;
      stroke-linejoin: round;
      stroke-miterlimit: 10.00;
    }
  ]]></style>
<clipPath id="c0"><rect x="0.00" y="0.00" width="1228.80" height="773.60"/></clipPath>
<clipPath id="c1"><rect x="28.37" y="5.48" width="1194.95" height="736.39"/></clipPath>
<clipPath id="c2"><rect x="0.00" y="0.00" width="1228.80" height="773.60"/></clipPath>
</defs>
<rect width="100%" height="100%" style="stroke: none;fill: #FFFFFF;"/>
<g clip-path="url(#c0)">
<rect x="0.00" y="0.00" width="1228.80" height="773.60" style="stroke-width: 1.07;stroke: #FFFFFF;fill: #FFFFFF;"/>
</g><g clip-path="url(#c1)">
<rect x="28.37" y="5.48" width="1194.95" height="736.39" style="stroke-width: 1.07;stroke: none;fill: #EBEBEB;"/>
<polyline points="28.37,617.11 1223.32,617.11" style="stroke-width: 0.53;stroke: #FFFFFF;stroke-linecap: butt;"/>
<polyline points="28.37,434.53 1223.32,434.53" style="stroke-width: 0.53;stroke: #FFFFFF;stroke-linecap: butt;"/>
<polyline points="28.37,251.96 1223.32,251.96" style="stroke-width: 0.53;stroke: #FFFFFF;stroke-linecap: butt;"/>
<polyline points="28.37,69.38 1223.32,69.38" style="stroke-width: 0.53;stroke: #FFFFFF;stroke-linecap: butt;"/>
<polyline points="122.01,741.87 122.01,5.48" style="stroke-width: 0.53;stroke: #FFFFFF;stroke-linecap: butt;"/>
<polyline points="381.72,741.87 381.72,5.48" style="stroke-width: 0.53;stroke: #FFFFFF;stroke-linecap: butt;"/>
<polyline points="641.43,741.87 641.43,5.48" style="stroke-width: 0.53;stroke: #FFFFFF;stroke-linecap: butt;"/>
<polyline points="901.14,741.87 901.14,5.48" style="stroke-width: 0.53;stroke: #FFFFFF;stroke-linecap: butt;"/>
<polyline points="1160.85,741.87 1160.85,5.48" style="stroke-width: 0.53;stroke: #FFFFFF;stroke-linecap: butt;"/>
<polyline points="28.37,708.39 1223.32,708.39" style="stroke-width: 1.07;stroke: #FFFFFF;stroke-linecap: butt;"/>
<polyline points="28.37,525.82 1223.32,525.82" style="stroke-width: 1.07;stroke: #FFFFFF;stroke-linecap: butt;"/>
<polyline points="28.37,343.24 1223.32,343.24" style="stroke-width: 1.07;stroke: #FFFFFF;stroke-linecap: butt;"/>
<polyline points="28.37,160.67 1223.32,160.67" style="stroke-width: 1.07;stroke: #FFFFFF;stroke-linecap: butt;"/>
<polyline points="251.87,741.87 251.87,5.48" style="stroke-width: 1.07;stroke: #FFFFFF;stroke-linecap: butt;"/>
<polyline points="511.58,741.87 511.58,5.48" style="stroke-width: 1.07;stroke: #FFFFFF;stroke-linecap: butt;"/>
<polyline points="771.29,741.87 771.29,5.48" style="stroke-width: 1.07;stroke: #FFFFFF;stroke-linecap: butt;"/>
<polyline points="1030.99,741.87 1030.99,5.48" style="stroke-width: 1.07;stroke: #FFFFFF;stroke-linecap: butt;"/>
<rect x="82.69" y="38.95" width="36.21" height="669.44" style="stroke-width: 1.07;stroke: none;stroke-linecap: square;stroke-linejoin: miter;fill: #595959;"/>
<rect x="118.90" y="38.95" width="36.21" height="669.44" style="stroke-width: 1.07;stroke: none;stroke-linecap: square;stroke-linejoin: miter;fill: #595959;"/>
<rect x="155.11" y="221.53" width="36.21" height="486.87" style="stroke-width: 1.07;stroke: none;stroke-linecap: square;stroke-linejoin: miter;fill: #595959;"/>
<rect x="191.32" y="525.82" width="36.21" height="182.58" style="stroke-width: 1.07;stroke: none;stroke-linecap: square;stroke-linejoin: miter;fill: #595959;"/>
<rect x="227.53" y="647.54" width="36.21" height="60.86" style="stroke-width: 1.07;stroke: none;stroke-linecap: square;stroke-linejoin: miter;fill: #595959;"/>
<rect x="263.74" y="647.54" width="36.21" height="60.86" style="stroke-width: 1.07;stroke: none;stroke-linecap: square;stroke-linejoin: miter;fill: #595959;"/>
<rect x="299.95" y="586.68" width="36.21" height="121.72" style="stroke-width: 1.07;stroke: none;stroke-linecap: square;stroke-linejoin: miter;fill: #595959;"/>
<rect x="336.16" y="708.39" width="36.21" height="0.00" style="stroke-width: 1.07;stroke: none;stroke-linecap: square;stroke-linejoin: miter;fill: #595959;"/>
<rect x="372.37" y="647.54" width="36.21" height="60.86" style="stroke-width: 1.07;stroke: none;stroke-linecap: square;stroke-linejoin: miter;fill: #595959;"/>
<rect x="408.58" y="647.54" width="36.21" height="60.86" style="stroke-width: 1.07;stroke: none;stroke-linecap: square;stroke-linejoin: miter;fill: #595959;"/>
<rect x="444.79" y="708.39" width="36.21" height="0.00" style="stroke-width: 1.07;stroke: none;stroke-linecap: square;stroke-linejoin: miter;fill: #595959;"/>
<rect x="481.00" y="708.39" width="36.21" height="0.00" style="stroke-width: 1.07;stroke: none;stroke-linecap: square;stroke-linejoin: miter;fill: #595959;"/>
<rect x="517.21" y="708.39" width="36.21" height="0.00" style="stroke-width: 1.07;stroke: none;stroke-linecap: square;stroke-linejoin: miter;fill: #595959;"/>
<rect x="553.42" y="708.39" width="36.21" height="0.00" style="stroke-width: 1.07;stroke: none;stroke-linecap: square;stroke-linejoin: miter;fill: #595959;"/>
<rect x="589.64" y="708.39" width="36.21" height="0.00" style="stroke-width: 1.07;stroke: none;stroke-linecap: square;stroke-linejoin: miter;fill: #595959;"/>
<rect x="625.85" y="708.39" width="36.21" height="0.00" style="stroke-width: 1.07;stroke: none;stroke-linecap: square;stroke-linejoin: miter;fill: #595959;"/>
<rect x="662.06" y="708.39" width="36.21" height="0.00" style="stroke-width: 1.07;stroke: none;stroke-linecap: square;stroke-linejoin: miter;fill: #595959;"/>
<rect x="698.27" y="708.39" width="36.21" height="0.00" style="stroke-width: 1.07;stroke: none;stroke-linecap: square;stroke-linejoin: miter;fill: #595959;"/>
<rect x="734.48" y="708.39" width="36.21" height="0.00" style="stroke-width: 1.07;stroke: none;stroke-linecap: square;stroke-linejoin: miter;fill: #595959;"/>
<rect x="770.69" y="708.39" width="36.21" height="0.00" style="stroke-width: 1.07;stroke: none;stroke-linecap: square;stroke-linejoin: miter;fill: #595959;"/>
<rect x="806.90" y="708.39" width="36.21" height="0.00" style="stroke-width: 1.07;stroke: none;stroke-linecap: square;stroke-linejoin: miter;fill: #595959;"/>
<rect x="843.11" y="708.39" width="36.21" height="0.00" style="stroke-width: 1.07;stroke: none;stroke-linecap: square;stroke-linejoin: miter;fill: #595959;"/>
<rect x="879.32" y="708.39" width="36.21" height="0.00" style="stroke-width: 1.07;stroke: none;stroke-linecap: square;stroke-linejoin: miter;fill: #595959;"/>
<rect x="915.53" y="708.39" width="36.21" height="0.00" style="stroke-width: 1.07;stroke: none;stroke-linecap: square;stroke-linejoin: miter;fill: #595959;"/>
<rect x="951.74" y="708.39" width="36.21" height="0.00" style="stroke-width: 1.07;stroke: none;stroke-linecap: square;stroke-linejoin: miter;fill: #595959;"/>
<rect x="987.95" y="708.39" width="36.21" height="0.00" style="stroke-width: 1.07;stroke: none;stroke-linecap: square;stroke-linejoin: miter;fill: #595959;"/>
<rect x="1024.16" y="708.39" width="36.21" height="0.00" style="stroke-width: 1.07;stroke: none;stroke-linecap: square;stroke-linejoin: miter;fill: #595959;"/>
<rect x="1060.37" y="708.39" width="36.21" height="0.00" style="stroke-width: 1.07;stroke: none;stroke-linecap: square;stroke-linejoin: miter;fill: #595959;"/>
<rect x="1096.58" y="708.39" width="36.21" height="0.00" style="stroke-width: 1.07;stroke: none;stroke-linecap: square;stroke-linejoin: miter;fill: #595959;"/>
<rect x="1132.79" y="647.54" width="36.21" height="60.86" style="stroke-width: 1.07;stroke: none;stroke-linecap: square;stroke-linejoin: miter;fill: #595959;"/>
</g><g clip-path="url(#c2)">
<g><text x="23.44" y="711.55" text-anchor="end" style="font-family: Arial;font-size: 8.80px;fill: #4D4D4D;" textLength="4.90px" lengthAdjust="spacingAndGlyphs">0</text></g>
<g><text x="23.44" y="528.97" text-anchor="end" style="font-family: Arial;font-size: 8.80px;fill: #4D4D4D;" textLength="4.90px" lengthAdjust="spacingAndGlyphs">3</text></g>
<g><text x="23.44" y="346.40" text-anchor="end" style="font-family: Arial;font-size: 8.80px;fill: #4D4D4D;" textLength="4.90px" lengthAdjust="spacingAndGlyphs">6</text></g>
<g><text x="23.44" y="163.82" text-anchor="end" style="font-family: Arial;font-size: 8.80px;fill: #4D4D4D;" textLength="4.90px" lengthAdjust="spacingAndGlyphs">9</text></g>
<polyline points="25.63,708.39 28.37,708.39" style="stroke-width: 1.07;stroke: #333333;stroke-linecap: butt;"/>
<polyline points="25.63,525.82 28.37,525.82" style="stroke-width: 1.07;stroke: #333333;stroke-linecap: butt;"/>
<polyline points="25.63,343.24 28.37,343.24" style="stroke-width: 1.07;stroke: #333333;stroke-linecap: butt;"/>
<polyline points="25.63,160.67 28.37,160.67" style="stroke-width: 1.07;stroke: #333333;stroke-linecap: butt;"/>
<polyline points="251.87,744.61 251.87,741.87" style="stroke-width: 1.07;stroke: #333333;stroke-linecap: butt;"/>
<polyline points="511.58,744.61 511.58,741.87" style="stroke-width: 1.07;stroke: #333333;stroke-linecap: butt;"/>
<polyline points="771.29,744.61 771.29,741.87" style="stroke-width: 1.07;stroke: #333333;stroke-linecap: butt;"/>
<polyline points="1030.99,744.61 1030.99,741.87" style="stroke-width: 1.07;stroke: #333333;stroke-linecap: butt;"/>
<g><text x="251.87" y="753.10" text-anchor="middle" style="font-family: Arial;font-size: 8.80px;fill: #4D4D4D;" textLength="9.79px" lengthAdjust="spacingAndGlyphs">10</text></g>
<g><text x="511.58" y="753.10" text-anchor="middle" style="font-family: Arial;font-size: 8.80px;fill: #4D4D4D;" textLength="9.79px" lengthAdjust="spacingAndGlyphs">20</text></g>
<g><text x="771.29" y="753.10" text-anchor="middle" style="font-family: Arial;font-size: 8.80px;fill: #4D4D4D;" textLength="9.79px" lengthAdjust="spacingAndGlyphs">30</text></g>
<g><text x="1030.99" y="753.10" text-anchor="middle" style="font-family: Arial;font-size: 8.80px;fill: #4D4D4D;" textLength="9.79px" lengthAdjust="spacingAndGlyphs">40</text></g>
<g><text x="625.85" y="765.69" text-anchor="middle" style="font-family: Arial;font-size: 11.00px;" textLength="114.34px" lengthAdjust="spacingAndGlyphs">electricity_consumption</text></g>
<g><text transform="translate(13.37,373.67) rotate(-90.00)" text-anchor="middle" style="font-family: Arial;font-size: 11.00px;" textLength="26.91px" lengthAdjust="spacingAndGlyphs">count</text></g>
</g>
</svg>