<svg xmlns="http://www.w3.org/2000/svg" xmlns:xlink="http://www.w3.org/1999/xlink" class="httpgd" width="1536.00" height="967.00" viewBox="0 0 1228.80 773.60">
<defs>
  <style type='text/css'><![CDATA[
    .httpgd line, .httpgd polyline, .httpgd polygon, .httpgd path, .httpgd rect, .httpgd circle {
      fill: none;
      stroke: #000000;
      stroke-linecap: round;
      stroke-linejoin: round;
      stroke-miterlimit: 10.00;
    }
  ]]></style>
<clipPath id="c0"><rect x="0.00" y="0.00" width="1228.80" height="773.60"/></clipPath>
<clipPath id="c1"><rect x="33.27" y="23.34" width="1190.05" height="718.53"/></clipPath>
<clipPath id="c2"><rect x="0.00" y="0.00" width="1228.80" height="773.60"/></clipPath>
</defs>
<rect width="100%" height="100%" style="stroke: none;fill: #FFFFFF;"/>
<g clip-path="url(#c0)">
<rect x="0.00" y="0.00" width="1228.80" height="773.60" style="stroke-width: 1.07;stroke: #FFFFFF;fill: #FFFFFF;"/>
</g><g clip-path="url(#c1)">
<rect x="33.27" y="23.34" width="1190.05" height="718.53" style="stroke-width: 1.07;stroke: none;fill: #EBEBEB;"/>
<polyline points="33.27,715.88 1223.32,715.88" style="stroke-width: 0.53;stroke: #FFFFFF;stroke-linecap: butt;"/>
<polyline points="33.27,516.74 1223.32,516.74" style="stroke-width: 0.53;stroke: #FFFFFF;stroke-linecap: butt;"/>
<polyline points="33.27,317.59 1223.32,317.59" style="stroke-width: 0.53;stroke: #FFFFFF;stroke-linecap: butt;"/>
<polyline points="33.27,118.44 1223.32,118.44" style="stroke-width: 0.53;stroke: #FFFFFF;stroke-linecap: butt;"/>
<polyline points="113.44,741.87 113.44,23.34" style="stroke-width: 0.53;stroke: #FFFFFF;stroke-linecap: butt;"/>
<polyline points="380.98,741.87 380.98,23.34" style="stroke-width: 0.53;stroke: #FFFFFF;stroke-linecap: butt;"/>
<polyline points="648.51,741.87 648.51,23.34" style="stroke-width: 0.53;stroke: #FFFFFF;stroke-linecap: butt;"/>
<polyline points="916.05,741.87 916.05,23.34" style="stroke-width: 0.53;stroke: #FFFFFF;stroke-linecap: butt;"/>
<polyline points="1183.59,741.87 1183.59,23.34" style="stroke-width: 0.53;stroke: #FFFFFF;stroke-linecap: butt;"/>
<polyline points="33.27,616.31 1223.32,616.31" style="stroke-width: 1.07;stroke: #FFFFFF;stroke-linecap: butt;"/>
<polyline points="33.27,417.16 1223.32,417.16" style="stroke-width: 1.07;stroke: #FFFFFF;stroke-linecap: butt;"/>
<polyline points="33.27,218.01 1223.32,218.01" style="stroke-width: 1.07;stroke: #FFFFFF;stroke-linecap: butt;"/>
<polyline points="247.21,741.87 247.21,23.34" style="stroke-width: 1.07;stroke: #FFFFFF;stroke-linecap: butt;"/>
<polyline points="514.75,741.87 514.75,23.34" style="stroke-width: 1.07;stroke: #FFFFFF;stroke-linecap: butt;"/>
<polyline points="782.28,741.87 782.28,23.34" style="stroke-width: 1.07;stroke: #FFFFFF;stroke-linecap: butt;"/>
<polyline points="1049.82,741.87 1049.82,23.34" style="stroke-width: 1.07;stroke: #FFFFFF;stroke-linecap: butt;"/>
<circle cx="104.55" cy="491.02" r="1.95" style="stroke-width: 0.71;fill: #000000;"/>
<circle cx="114.75" cy="585.00" r="1.95" style="stroke-width: 0.71;fill: #000000;"/>
<circle cx="143.40" cy="401.77" r="1.95" style="stroke-width: 0.71;fill: #000000;"/>
<circle cx="332.88" cy="402.56" r="1.95" style="stroke-width: 0.71;fill: #000000;"/>
<circle cx="99.47" cy="627.74" r="1.95" style="stroke-width: 0.71;fill: #000000;"/>
<circle cx="315.44" cy="385.62" r="1.95" style="stroke-width: 0.71;fill: #000000;"/>
<circle cx="434.63" cy="338.90" r="1.95" style="stroke-width: 0.71;fill: #000000;"/>
<circle cx="163.45" cy="481.00" r="1.95" style="stroke-width: 0.71;fill: #000000;"/>
<circle cx="155.45" cy="440.30" r="1.95" style="stroke-width: 0.71;fill: #000000;"/>
<circle cx="90.16" cy="445.63" r="1.95" style="stroke-width: 0.71;fill: #000000;"/>
<circle cx="99.82" cy="562.43" r="1.95" style="stroke-width: 0.71;fill: #000000;"/>
<circle cx="97.66" cy="525.72" r="1.95" style="stroke-width: 0.71;fill: #000000;"/>
<circle cx="170.91" cy="500.92" r="1.95" style="stroke-width: 0.71;fill: #000000;"/>
<circle cx="116.00" cy="596.14" r="1.95" style="stroke-width: 0.71;fill: #000000;"/>
<circle cx="202.75" cy="374.44" r="1.95" style="stroke-width: 0.71;fill: #000000;"/>
<circle cx="130.66" cy="396.14" r="1.95" style="stroke-width: 0.71;fill: #000000;"/>
<circle cx="181.03" cy="496.28" r="1.95" style="stroke-width: 0.71;fill: #000000;"/>
<circle cx="1169.23" cy="328.96" r="1.95" style="stroke-width: 0.71;fill: #000000;"/>
<circle cx="115.59" cy="534.90" r="1.95" style="stroke-width: 0.71;fill: #000000;"/>
<circle cx="206.54" cy="505.61" r="1.95" style="stroke-width: 0.71;fill: #000000;"/>
<circle cx="398.43" cy="169.01" r="1.95" style="stroke-width: 0.71;fill: #000000;"/>
<circle cx="100.26" cy="548.18" r="1.95" style="stroke-width: 0.71;fill: #000000;"/>
<circle cx="160.98" cy="487.56" r="1.95" style="stroke-width: 0.71;fill: #000000;"/>
<circle cx="94.13" cy="551.43" r="1.95" style="stroke-width: 0.71;fill: #000000;"/>
<circle cx="104.69" cy="625.01" r="1.95" style="stroke-width: 0.71;fill: #000000;"/>
<circle cx="116.22" cy="517.16" r="1.95" style="stroke-width: 0.71;fill: #000000;"/>
<circle cx="87.36" cy="709.21" r="1.95" style="stroke-width: 0.71;fill: #000000;"/>
<circle cx="115.86" cy="381.58" r="1.95" style="stroke-width: 0.71;fill: #000000;"/>
<circle cx="276.16" cy="411.26" r="1.95" style="stroke-width: 0.71;fill: #000000;"/>
<circle cx="111.41" cy="343.94" r="1.95" style="stroke-width: 0.71;fill: #000000;"/>
<circle cx="128.38" cy="528.00" r="1.95" style="stroke-width: 0.71;fill: #000000;"/>
<circle cx="148.81" cy="481.34" r="1.95" style="stroke-width: 0.71;fill: #000000;"/>
<circle cx="130.09" cy="518.39" r="1.95" style="stroke-width: 0.71;fill: #000000;"/>
<circle cx="98.35" cy="643.72" r="1.95" style="stroke-width: 0.71;fill: #000000;"/>
<circle cx="237.28" cy="554.77" r="1.95" style="stroke-width: 0.71;fill: #000000;"/>
<circle cx="165.49" cy="408.36" r="1.95" style="stroke-width: 0.71;fill: #000000;"/>
<circle cx="215.61" cy="419.01" r="1.95" style="stroke-width: 0.71;fill: #000000;"/>
<circle cx="92.99" cy="594.24" r="1.95" style="stroke-width: 0.71;fill: #000000;"/>
<circle cx="183.22" cy="408.63" r="1.95" style="stroke-width: 0.71;fill: #000000;"/>
<circle cx="119.12" cy="501.02" r="1.95" style="stroke-width: 0.71;fill: #000000;"/>
<polygon points="87.41,534.75 101.11,514.95 114.80,465.56 128.49,423.74 142.19,413.17 155.88,407.36 169.57,400.11 183.26,395.50 196.96,396.77 210.65,397.96 224.34,397.84 238.04,394.91 251.73,388.54 265.42,378.90 279.12,366.43 292.81,352.71 306.50,338.57 320.20,324.23 333.89,309.83 347.58,295.53 361.28,281.43 374.97,267.60 388.66,254.11 402.35,241.01 416.05,228.32 429.74,216.06 443.43,204.26 457.13,192.93 470.82,182.06 484.51,171.67 498.21,161.75 511.90,152.30 525.59,143.31 539.29,134.80 552.98,126.74 566.67,119.14 580.37,111.99 594.06,105.29 607.75,99.03 621.45,93.20 635.14,87.81 648.83,82.85 662.52,78.31 676.22,74.20 689.91,70.51 703.60,67.24 717.30,64.38 730.99,61.94 744.68,59.92 758.38,58.31 772.07,57.12 785.76,56.35 799.46,56.00 813.15,56.06 826.84,56.55 840.54,57.45 854.23,58.78 867.92,60.52 881.61,62.68 895.31,65.26 909.00,68.24 922.69,71.63 936.39,75.41 950.08,79.57 963.77,84.11 977.47,88.99 991.16,94.20 1004.85,99.72 1018.55,105.52 1032.24,111.56 1045.93,117.80 1059.63,124.20 1073.32,130.71 1087.01,137.28 1100.70,143.87 1114.40,150.40 1128.09,156.83 1141.78,163.10 1155.48,169.17 1169.17,174.98 1169.17,483.00 1155.48,467.90 1141.78,453.92 1128.09,441.00 1114.40,429.09 1100.70,418.13 1087.01,408.06 1073.32,398.81 1059.63,390.33 1045.93,382.57 1032.24,375.46 1018.55,368.97 1004.85,363.05 991.16,357.65 977.47,352.75 963.77,348.32 950.08,344.33 936.39,340.75 922.69,337.57 909.00,334.77 895.31,332.34 881.61,330.27 867.92,328.54 854.23,327.16 840.54,326.10 826.84,325.38 813.15,324.97 799.46,324.88 785.76,325.10 772.07,325.64 758.38,326.47 744.68,327.61 730.99,329.04 717.30,330.76 703.60,332.77 689.91,335.05 676.22,337.61 662.52,340.44 648.83,343.53 635.14,346.86 621.45,350.44 607.75,354.26 594.06,358.30 580.37,362.56 566.67,367.02 552.98,371.68 539.29,376.53 525.59,381.56 511.90,386.75 498.21,392.10 484.51,397.61 470.82,403.26 457.13,409.05 443.43,414.98 429.74,421.05 416.05,427.27 402.35,433.64 388.66,440.18 374.97,446.93 361.28,453.92 347.58,461.20 333.89,468.86 320.20,476.99 306.50,485.72 292.81,495.22 279.12,505.68 265.42,514.43 251.73,516.50 238.04,514.28 224.34,510.17 210.65,505.75 196.96,501.78 183.26,499.23 169.57,503.06 155.88,509.39 142.19,506.92 128.49,523.79 114.80,547.87 101.11,589.50 87.41,687.04" style="stroke-width: 0.00;stroke: none;fill: #999999;fill-opacity: 0.40;" />
<polyline points="87.41,534.75 101.11,514.95 114.80,465.56 128.49,423.74 142.19,413.17 155.88,407.36 169.57,400.11 183.26,395.50 196.96,396.77 210.65,397.96 224.34,397.84 238.04,394.91 251.73,388.54 265.42,378.90 279.12,366.43 292.81,352.71 306.50,338.57 320.20,324.23 333.89,309.83 347.58,295.53 361.28,281.43 374.97,267.60 388.66,254.11 402.35,241.01 416.05,228.32 429.74,216.06 443.43,204.26 457.13,192.93 470.82,182.06 484.51,171.67 498.21,161.75 511.90,152.30 525.59,143.31 539.29,134.80 552.98,126.74 566.67,119.14 580.37,111.99 594.06,105.29 607.75,99.03 621.45,93.20 635.14,87.81 648.83,82.85 662.52,78.31 676.22,74.20 689.91,70.51 703.60,67.24 717.30,64.38 730.99,61.94 744.68,59.92 758.38,58.31 772.07,57.12 785.76,56.35 799.46,56.00 813.15,56.06 826.84,56.55 840.54,57.45 854.23,58.78 867.92,60.52 881.61,62.68 895.31,65.26 909.00,68.24 922.69,71.63 936.39,75.41 950.08,79.57 963.77,84.11 977.47,88.99 991.16,94.20 1004.85,99.72 1018.55,105.52 1032.24,111.56 1045.93,117.80 1059.63,124.20 1073.32,130.71 1087.01,137.28 1100.70,143.87 1114.40,150.40 1128.09,156.83 1141.78,163.10 1155.48,169.17 1169.17,174.98" style="stroke-width: 2.13;stroke: none;"/>
<polyline points="1169.17,483.00 1155.48,467.90 1141.78,453.92 1128.09,441.00 1114.40,429.09 1100.70,418.13 1087.01,408.06 1073.32,398.81 1059.63,390.33 1045.93,382.57 1032.24,375.46 1018.55,368.97 1004.85,363.05 991.16,357.65 977.47,352.75 963.77,348.32 950.08,344.33 936.39,340.75 922.69,337.57 909.00,334.77 895.31,332.34 881.61,330.27 867.92,328.54 854.23,327.16 840.54,326.10 826.84,325.38 813.15,324.97 799.46,324.88 785.76,325.10 772.07,325.64 758.38,326.47 744.68,327.61 730.99,329.04 717.30,330.76 703.60,332.77 689.91,335.05 676.22,337.61 662.52,340.44 648.83,343.53 635.14,346.86 621.45,350.44 607.75,354.26 594.06,358.30 580.37,362.56 566.67,367.02 552.98,371.68 539.29,376.53 525.59,381.56 511.90,386.75 498.21,392.10 484.51,397.61 470.82,403.26 457.13,409.05 443.43,414.98 429.74,421.05 416.05,427.27 402.35,433.64 388.66,440.18 374.97,446.93 361.28,453.92 347.58,461.20 333.89,468.86 320.20,476.99 306.50,485.72 292.81,495.22 279.12,505.68 265.42,514.43 251.73,516.50 238.04,514.28 224.34,510.17 210.65,505.75 196.96,501.78 183.26,499.23 169.57,503.06 155.88,509.39 142.19,506.92 128.49,523.79 114.80,547.87 101.11,589.50 87.41,687.04" style="stroke-width: 2.13;stroke: none;"/>
<polyline points="87.41,610.89 101.11,552.22 114.80,506.72 128.49,473.76 142.19,460.04 155.88,458.37 169.57,451.58 183.26,447.37 196.96,449.27 210.65,451.86 224.34,454.00 238.04,454.60 251.73,452.52 265.42,446.66 279.12,436.06 292.81,423.96 306.50,412.15 320.20,400.61 333.89,389.34 347.58,378.37 361.28,367.67 374.97,357.27 388.66,347.15 402.35,337.32 416.05,327.79 429.74,318.56 443.43,309.62 457.13,300.99 470.82,292.66 484.51,284.64 498.21,276.92 511.90,269.52 525.59,262.43 539.29,255.66 552.98,249.21 566.67,243.08 580.37,237.28 594.06,231.80 607.75,226.64 621.45,221.82 635.14,217.34 648.83,213.19 662.52,209.38 676.22,205.91 689.91,202.78 703.60,200.00 717.30,197.57 730.99,195.49 744.68,193.76 758.38,192.39 772.07,191.38 785.76,190.73 799.46,190.44 813.15,190.52 826.84,190.96 840.54,191.78 854.23,192.97 867.92,194.53 881.61,196.48 895.31,198.80 909.00,201.51 922.69,204.60 936.39,208.08 950.08,211.95 963.77,216.21 977.47,220.87 991.16,225.93 1004.85,231.39 1018.55,237.25 1032.24,243.51 1045.93,250.18 1059.63,257.27 1073.32,264.76 1087.01,272.67 1100.70,281.00 1114.40,289.75 1128.09,298.92 1141.78,308.51 1155.48,318.53 1169.17,328.99" style="stroke-width: 2.13;stroke: #3366FF;stroke-linecap: butt;"/>
</g><g clip-path="url(#c2)">
<g><text x="28.34" y="619.46" text-anchor="end" style="font-family: Arial;font-size: 8.80px;fill: #4D4D4D;" textLength="9.79px" lengthAdjust="spacingAndGlyphs">10</text></g>
<g><text x="28.34" y="420.32" text-anchor="end" style="font-family: Arial;font-size: 8.80px;fill: #4D4D4D;" textLength="9.79px" lengthAdjust="spacingAndGlyphs">20</text></g>
<g><text x="28.34" y="221.17" text-anchor="end" style="font-family: Arial;font-size: 8.80px;fill: #4D4D4D;" textLength="9.79px" lengthAdjust="spacingAndGlyphs">30</text></g>
<polyline points="30.53,616.31 33.27,616.31" style="stroke-width: 1.07;stroke: #333333;stroke-linecap: butt;"/>
<polyline points="30.53,417.16 33.27,417.16" style="stroke-width: 1.07;stroke: #333333;stroke-linecap: butt;"/>
<polyline points="30.53,218.01 33.27,218.01" style="stroke-width: 1.07;stroke: #333333;stroke-linecap: butt;"/>
<polyline points="247.21,744.61 247.21,741.87" style="stroke-width: 1.07;stroke: #333333;stroke-linecap: butt;"/>
<polyline points="514.75,744.61 514.75,741.87" style="stroke-width: 1.07;stroke: #333333;stroke-linecap: butt;"/>
<polyline points="782.28,744.61 782.28,741.87" style="stroke-width: 1.07;stroke: #333333;stroke-linecap: butt;"/>
<polyline points="1049.82,744.61 1049.82,741.87" style="stroke-width: 1.07;stroke: #333333;stroke-linecap: butt;"/>
<g><text x="247.21" y="753.10" text-anchor="middle" style="font-family: Arial;font-size: 8.80px;fill: #4D4D4D;" textLength="9.79px" lengthAdjust="spacingAndGlyphs">10</text></g>
<g><text x="514.75" y="753.10" text-anchor="middle" style="font-family: Arial;font-size: 8.80px;fill: #4D4D4D;" textLength="9.79px" lengthAdjust="spacingAndGlyphs">20</text></g>
<g><text x="782.28" y="753.10" text-anchor="middle" style="font-family: Arial;font-size: 8.80px;fill: #4D4D4D;" textLength="9.79px" lengthAdjust="spacingAndGlyphs">30</text></g>
<g><text x="1049.82" y="753.10" text-anchor="middle" style="font-family: Arial;font-size: 8.80px;fill: #4D4D4D;" textLength="9.79px" lengthAdjust="spacingAndGlyphs">40</text></g>
<g><text x="628.29" y="765.69" text-anchor="middle" style="font-family: Arial;font-size: 11.00px;" textLength="148.54px" lengthAdjust="spacingAndGlyphs">Electricity consumption (MWh)</text></g>
<g><text transform="translate(13.37,382.60) rotate(-90.00)" text-anchor="middle" style="font-family: Arial;font-size: 11.00px;" textLength="126.80px" lengthAdjust="spacingAndGlyphs">Productivity (1000€ / day)</text></g>
<g><text x="628.29" y="14.94" text-anchor="middle" style="font-family: Arial;font-size: 13.20px;" textLength="223.59px" lengthAdjust="spacingAndGlyphs">Productivity vs Electricity consumption</text></g>
</g>
</svg>