<svg xmlns="http://www.w3.org/2000/svg" xmlns:xlink="http://www.w3.org/1999/xlink" class="httpgd" width="1536.00" height="967.00" viewBox="0 0 1228.80 773.60">
<defs>
  <style type='text/css'><![CDATA[
    .httpgd line, .httpgd polyline, .httpgd polygon, .httpgd path, .httpgd rect, .httpgd circle {
      fill: none;
      stroke: #000000;
      stroke-linecap: round;
      stroke-linejoin: round;
      stroke-miterlimit: 10.00;
    }
  ]]></style>
<clipPath id="c0"><rect x="0.00" y="0.00" width="1228.80" height="773.60"/></clipPath>
<clipPath id="c1"><rect x="33.27" y="5.48" width="1190.05" height="736.39"/></clipPath>
<clipPath id="c2"><rect x="0.00" y="0.00" width="1228.80" height="773.60"/></clipPath>
</defs>
<rect width="100%" height="100%" style="stroke: none;fill: #FFFFFF;"/>
<g clip-path="url(#c0)">
<rect x="0.00" y="0.00" width="1228.80" height="773.60" style="stroke-width: 1.07;stroke: #FFFFFF;fill: #FFFFFF;"/>
</g><g clip-path="url(#c1)">
<rect x="33.27" y="5.48" width="1190.05" height="736.39" style="stroke-width: 1.07;stroke: none;fill: #EBEBEB;"/>
<polyline points="33.27,716.70 1223.32,716.70" style="stroke-width: 0.53;stroke: #FFFFFF;stroke-linecap: butt;"/>
<polyline points="33.27,469.88 1223.32,469.88" style="stroke-width: 0.53;stroke: #FFFFFF;stroke-linecap: butt;"/>
<polyline points="33.27,223.07 1223.32,223.07" style="stroke-width: 0.53;stroke: #FFFFFF;stroke-linecap: butt;"/>
<polyline points="113.39,741.87 113.39,5.48" style="stroke-width: 0.53;stroke: #FFFFFF;stroke-linecap: butt;"/>
<polyline points="380.96,741.87 380.96,5.48" style="stroke-width: 0.53;stroke: #FFFFFF;stroke-linecap: butt;"/>
<polyline points="648.52,741.87 648.52,5.48" style="stroke-width: 0.53;stroke: #FFFFFF;stroke-linecap: butt;"/>
<polyline points="916.08,741.87 916.08,5.48" style="stroke-width: 0.53;stroke: #FFFFFF;stroke-linecap: butt;"/>
<polyline points="1183.64,741.87 1183.64,5.48" style="stroke-width: 0.53;stroke: #FFFFFF;stroke-linecap: butt;"/>
<polyline points="33.27,593.29 1223.32,593.29" style="stroke-width: 1.07;stroke: #FFFFFF;stroke-linecap: butt;"/>
<polyline points="33.27,346.48 1223.32,346.48" style="stroke-width: 1.07;stroke: #FFFFFF;stroke-linecap: butt;"/>
<polyline points="33.27,99.66 1223.32,99.66" style="stroke-width: 1.07;stroke: #FFFFFF;stroke-linecap: butt;"/>
<polyline points="247.17,741.87 247.17,5.48" style="stroke-width: 1.07;stroke: #FFFFFF;stroke-linecap: butt;"/>
<polyline points="514.74,741.87 514.74,5.48" style="stroke-width: 1.07;stroke: #FFFFFF;stroke-linecap: butt;"/>
<polyline points="782.30,741.87 782.30,5.48" style="stroke-width: 1.07;stroke: #FFFFFF;stroke-linecap: butt;"/>
<polyline points="1049.86,741.87 1049.86,5.48" style="stroke-width: 1.07;stroke: #FFFFFF;stroke-linecap: butt;"/>
<circle cx="104.49" cy="438.03" r="1.95" style="stroke-width: 0.71;stroke: #000000;stroke-opacity: 0.75;fill: #000000;fill-opacity: 0.75;"/>
<circle cx="114.68" cy="554.47" r="1.95" style="stroke-width: 0.71;stroke: #000000;stroke-opacity: 0.75;fill: #000000;fill-opacity: 0.75;"/>
<circle cx="143.37" cy="327.42" r="1.95" style="stroke-width: 0.71;stroke: #000000;stroke-opacity: 0.75;fill: #000000;fill-opacity: 0.75;"/>
<circle cx="332.86" cy="328.39" r="1.95" style="stroke-width: 0.71;stroke: #000000;stroke-opacity: 0.75;fill: #000000;fill-opacity: 0.75;"/>
<circle cx="99.40" cy="607.45" r="1.95" style="stroke-width: 0.71;stroke: #000000;stroke-opacity: 0.75;fill: #000000;fill-opacity: 0.75;"/>
<circle cx="315.36" cy="307.36" r="1.95" style="stroke-width: 0.71;stroke: #000000;stroke-opacity: 0.75;fill: #000000;fill-opacity: 0.75;"/>
<circle cx="434.63" cy="249.51" r="1.95" style="stroke-width: 0.71;stroke: #000000;stroke-opacity: 0.75;fill: #000000;fill-opacity: 0.75;"/>
<circle cx="163.37" cy="425.61" r="1.95" style="stroke-width: 0.71;stroke: #000000;stroke-opacity: 0.75;fill: #000000;fill-opacity: 0.75;"/>
<circle cx="155.35" cy="375.14" r="1.95" style="stroke-width: 0.71;stroke: #000000;stroke-opacity: 0.75;fill: #000000;fill-opacity: 0.75;"/>
<circle cx="90.10" cy="381.76" r="1.95" style="stroke-width: 0.71;stroke: #000000;stroke-opacity: 0.75;fill: #000000;fill-opacity: 0.75;"/>
<circle cx="99.72" cy="526.51" r="1.95" style="stroke-width: 0.71;stroke: #000000;stroke-opacity: 0.75;fill: #000000;fill-opacity: 0.75;"/>
<circle cx="97.55" cy="481.04" r="1.95" style="stroke-width: 0.71;stroke: #000000;stroke-opacity: 0.75;fill: #000000;fill-opacity: 0.75;"/>
<circle cx="170.92" cy="450.31" r="1.95" style="stroke-width: 0.71;stroke: #000000;stroke-opacity: 0.75;fill: #000000;fill-opacity: 0.75;"/>
<circle cx="115.99" cy="568.30" r="1.95" style="stroke-width: 0.71;stroke: #000000;stroke-opacity: 0.75;fill: #000000;fill-opacity: 0.75;"/>
<circle cx="202.70" cy="293.55" r="1.95" style="stroke-width: 0.71;stroke: #000000;stroke-opacity: 0.75;fill: #000000;fill-opacity: 0.75;"/>
<circle cx="130.62" cy="320.43" r="1.95" style="stroke-width: 0.71;stroke: #000000;stroke-opacity: 0.75;fill: #000000;fill-opacity: 0.75;"/>
<circle cx="181.02" cy="444.51" r="1.95" style="stroke-width: 0.71;stroke: #000000;stroke-opacity: 0.75;fill: #000000;fill-opacity: 0.75;"/>
<circle cx="1169.23" cy="237.14" r="1.95" style="stroke-width: 0.71;stroke: #000000;stroke-opacity: 0.75;fill: #000000;fill-opacity: 0.75;"/>
<circle cx="115.54" cy="492.43" r="1.95" style="stroke-width: 0.71;stroke: #000000;stroke-opacity: 0.75;fill: #000000;fill-opacity: 0.75;"/>
<circle cx="206.48" cy="456.11" r="1.95" style="stroke-width: 0.71;stroke: #000000;stroke-opacity: 0.75;fill: #000000;fill-opacity: 0.75;"/>
<circle cx="398.45" cy="38.95" r="1.95" style="stroke-width: 0.71;stroke: #000000;stroke-opacity: 0.75;fill: #000000;fill-opacity: 0.75;"/>
<circle cx="100.19" cy="508.86" r="1.95" style="stroke-width: 0.71;stroke: #000000;stroke-opacity: 0.75;fill: #000000;fill-opacity: 0.75;"/>
<circle cx="160.95" cy="433.74" r="1.95" style="stroke-width: 0.71;stroke: #000000;stroke-opacity: 0.75;fill: #000000;fill-opacity: 0.75;"/>
<circle cx="94.06" cy="512.89" r="1.95" style="stroke-width: 0.71;stroke: #000000;stroke-opacity: 0.75;fill: #000000;fill-opacity: 0.75;"/>
<circle cx="104.64" cy="604.09" r="1.95" style="stroke-width: 0.71;stroke: #000000;stroke-opacity: 0.75;fill: #000000;fill-opacity: 0.75;"/>
<circle cx="116.21" cy="470.42" r="1.95" style="stroke-width: 0.71;stroke: #000000;stroke-opacity: 0.75;fill: #000000;fill-opacity: 0.75;"/>
<circle cx="87.36" cy="708.39" r="1.95" style="stroke-width: 0.71;stroke: #000000;stroke-opacity: 0.75;fill: #000000;fill-opacity: 0.75;"/>
<circle cx="115.80" cy="302.36" r="1.95" style="stroke-width: 0.71;stroke: #000000;stroke-opacity: 0.75;fill: #000000;fill-opacity: 0.75;"/>
<circle cx="276.09" cy="339.16" r="1.95" style="stroke-width: 0.71;stroke: #000000;stroke-opacity: 0.75;fill: #000000;fill-opacity: 0.75;"/>
<circle cx="111.39" cy="255.70" r="1.95" style="stroke-width: 0.71;stroke: #000000;stroke-opacity: 0.75;fill: #000000;fill-opacity: 0.75;"/>
<circle cx="128.33" cy="483.87" r="1.95" style="stroke-width: 0.71;stroke: #000000;stroke-opacity: 0.75;fill: #000000;fill-opacity: 0.75;"/>
<circle cx="148.74" cy="426.01" r="1.95" style="stroke-width: 0.71;stroke: #000000;stroke-opacity: 0.75;fill: #000000;fill-opacity: 0.75;"/>
<circle cx="130.00" cy="471.92" r="1.95" style="stroke-width: 0.71;stroke: #000000;stroke-opacity: 0.75;fill: #000000;fill-opacity: 0.75;"/>
<circle cx="98.25" cy="627.28" r="1.95" style="stroke-width: 0.71;stroke: #000000;stroke-opacity: 0.75;fill: #000000;fill-opacity: 0.75;"/>
<circle cx="237.20" cy="516.99" r="1.95" style="stroke-width: 0.71;stroke: #000000;stroke-opacity: 0.75;fill: #000000;fill-opacity: 0.75;"/>
<circle cx="165.49" cy="335.56" r="1.95" style="stroke-width: 0.71;stroke: #000000;stroke-opacity: 0.75;fill: #000000;fill-opacity: 0.75;"/>
<circle cx="215.55" cy="348.75" r="1.95" style="stroke-width: 0.71;stroke: #000000;stroke-opacity: 0.75;fill: #000000;fill-opacity: 0.75;"/>
<circle cx="92.93" cy="565.96" r="1.95" style="stroke-width: 0.71;stroke: #000000;stroke-opacity: 0.75;fill: #000000;fill-opacity: 0.75;"/>
<circle cx="183.22" cy="335.88" r="1.95" style="stroke-width: 0.71;stroke: #000000;stroke-opacity: 0.75;fill: #000000;fill-opacity: 0.75;"/>
<circle cx="119.10" cy="450.39" r="1.95" style="stroke-width: 0.71;stroke: #000000;stroke-opacity: 0.75;fill: #000000;fill-opacity: 0.75;"/>
<polygon points="87.36,519.48 101.06,472.30 114.75,435.33 128.44,404.28 142.14,377.70 155.83,355.27 169.53,336.57 183.22,321.03 196.92,308.07 210.61,297.21 224.31,288.02 238.00,280.21 251.69,273.50 265.39,267.72 279.08,262.69 292.78,258.30 306.47,254.44 320.17,251.03 333.86,248.00 347.56,245.30 361.25,242.88 374.95,240.71 388.64,238.75 402.33,236.97 416.03,235.36 429.72,233.90 443.42,232.56 457.11,231.33 470.81,230.20 484.50,229.17 498.20,228.21 511.89,227.33 525.59,226.51 539.28,225.76 552.97,225.05 566.67,224.39 580.36,223.78 594.06,223.21 607.75,222.68 621.45,222.17 635.14,221.70 648.84,221.26 662.53,220.85 676.22,220.46 689.92,220.09 703.61,219.74 717.31,219.41 731.00,219.10 744.70,218.81 758.39,218.53 772.09,218.26 785.78,218.01 799.48,217.77 813.17,217.54 826.86,217.33 840.56,217.12 854.25,216.92 867.95,216.74 881.64,216.56 895.34,216.39 909.03,216.22 922.73,216.07 936.42,215.92 950.12,215.77 963.81,215.64 977.50,215.50 991.20,215.38 1004.89,215.26 1018.59,215.14 1032.28,215.03 1045.98,214.92 1059.67,214.81 1073.37,214.71 1087.06,214.62 1100.75,214.52 1114.45,214.43 1128.14,214.35 1141.84,214.27 1155.53,214.18 1169.23,214.11 1169.23,335.84 1155.53,335.88 1141.84,335.92 1128.14,335.97 1114.45,336.01 1100.75,336.06 1087.06,336.11 1073.37,336.16 1059.67,336.22 1045.98,336.27 1032.28,336.33 1018.59,336.39 1004.89,336.45 991.20,336.52 977.50,336.59 963.81,336.66 950.12,336.73 936.42,336.81 922.73,336.89 909.03,336.97 895.34,337.06 881.64,337.15 867.95,337.25 854.25,337.35 840.56,337.45 826.86,337.56 813.17,337.68 799.48,337.80 785.78,337.93 772.09,338.06 758.39,338.20 744.70,338.35 731.00,338.51 717.31,338.68 703.61,338.86 689.92,339.04 676.22,339.24 662.53,339.45 648.84,339.67 635.14,339.91 621.45,340.17 607.75,340.43 594.06,340.72 580.36,341.03 566.67,341.36 552.97,341.72 539.28,342.10 525.59,342.51 511.89,342.95 498.20,343.43 484.50,343.94 470.81,344.50 457.11,345.12 443.42,345.78 429.72,346.51 416.03,347.31 402.33,348.19 388.64,349.16 374.95,350.23 361.25,351.43 347.56,352.76 333.86,354.25 320.17,355.94 306.47,357.84 292.78,360.00 279.08,362.48 265.39,365.33 251.69,368.65 238.00,372.53 224.31,377.13 210.61,382.63 196.92,389.31 183.22,397.57 169.53,407.99 155.83,421.53 142.14,439.83 128.44,465.74 114.75,503.93 101.06,560.93 87.36,645.77" style="stroke-width: 0.00;stroke: none;fill: #999999;fill-opacity: 0.40;" />
<polyline points="87.36,519.48 101.06,472.30 114.75,435.33 128.44,404.28 142.14,377.70 155.83,355.27 169.53,336.57 183.22,321.03 196.92,308.07 210.61,297.21 224.31,288.02 238.00,280.21 251.69,273.50 265.39,267.72 279.08,262.69 292.78,258.30 306.47,254.44 320.17,251.03 333.86,248.00 347.56,245.30 361.25,242.88 374.95,240.71 388.64,238.75 402.33,236.97 416.03,235.36 429.72,233.90 443.42,232.56 457.11,231.33 470.81,230.20 484.50,229.17 498.20,228.21 511.89,227.33 525.59,226.51 539.28,225.76 552.97,225.05 566.67,224.39 580.36,223.78 594.06,223.21 607.75,222.68 621.45,222.17 635.14,221.70 648.84,221.26 662.53,220.85 676.22,220.46 689.92,220.09 703.61,219.74 717.31,219.41 731.00,219.10 744.70,218.81 758.39,218.53 772.09,218.26 785.78,218.01 799.48,217.77 813.17,217.54 826.86,217.33 840.56,217.12 854.25,216.92 867.95,216.74 881.64,216.56 895.34,216.39 909.03,216.22 922.73,216.07 936.42,215.92 950.12,215.77 963.81,215.64 977.50,215.50 991.20,215.38 1004.89,215.26 1018.59,215.14 1032.28,215.03 1045.98,214.92 1059.67,214.81 1073.37,214.71 1087.06,214.62 1100.75,214.52 1114.45,214.43 1128.14,214.35 1141.84,214.27 1155.53,214.18 1169.23,214.11" style="stroke-width: 2.13;stroke: none;"/>
<polyline points="1169.23,335.84 1155.53,335.88 1141.84,335.92 1128.14,335.97 1114.45,336.01 1100.75,336.06 1087.06,336.11 1073.37,336.16 1059.67,336.22 1045.98,336.27 1032.28,336.33 1018.59,336.39 1004.89,336.45 991.20,336.52 977.50,336.59 963.81,336.66 950.12,336.73 936.42,336.81 922.73,336.89 909.03,336.97 895.34,337.06 881.64,337.15 867.95,337.25 854.25,337.35 840.56,337.45 826.86,337.56 813.17,337.68 799.48,337.80 785.78,337.93 772.09,338.06 758.39,338.20 744.70,338.35 731.00,338.51 717.31,338.68 703.61,338.86 689.92,339.04 676.22,339.24 662.53,339.45 648.84,339.67 635.14,339.91 621.45,340.17 607.75,340.43 594.06,340.72 580.36,341.03 566.67,341.36 552.97,341.72 539.28,342.10 525.59,342.51 511.89,342.95 498.20,343.43 484.50,343.94 470.81,344.50 457.11,345.12 443.42,345.78 429.72,346.51 416.03,347.31 402.33,348.19 388.64,349.16 374.95,350.23 361.25,351.43 347.56,352.76 333.86,354.25 320.17,355.94 306.47,357.84 292.78,360.00 279.08,362.48 265.39,365.33 251.69,368.65 238.00,372.53 224.31,377.13 210.61,382.63 196.92,389.31 183.22,397.57 169.53,407.99 155.83,421.53 142.14,439.83 128.44,465.74 114.75,503.93 101.06,560.93 87.36,645.77" style="stroke-width: 2.13;stroke: none;"/>
<polyline points="87.36,582.63 101.06,516.61 114.75,469.63 128.44,435.01 142.14,408.77 155.83,388.40 169.53,372.28 183.22,359.30 196.92,348.69 210.61,339.92 224.31,332.58 238.00,326.37 251.69,321.08 265.39,316.53 279.08,312.58 292.78,309.15 306.47,306.14 320.17,303.48 333.86,301.13 347.56,299.03 361.25,297.15 374.95,295.47 388.64,293.95 402.33,292.58 416.03,291.34 429.72,290.20 443.42,289.17 457.11,288.22 470.81,287.35 484.50,286.56 498.20,285.82 511.89,285.14 525.59,284.51 539.28,283.93 552.97,283.38 566.67,282.88 580.36,282.41 594.06,281.97 607.75,281.56 621.45,281.17 635.14,280.81 648.84,280.47 662.53,280.15 676.22,279.85 689.92,279.57 703.61,279.30 717.31,279.05 731.00,278.81 744.70,278.58 758.39,278.37 772.09,278.16 785.78,277.97 799.48,277.79 813.17,277.61 826.86,277.44 840.56,277.29 854.25,277.14 867.95,276.99 881.64,276.85 895.34,276.72 909.03,276.60 922.73,276.48 936.42,276.36 950.12,276.25 963.81,276.15 977.50,276.04 991.20,275.95 1004.89,275.85 1018.59,275.76 1032.28,275.68 1045.98,275.59 1059.67,275.52 1073.37,275.44 1087.06,275.36 1100.75,275.29 1114.45,275.22 1128.14,275.16 1141.84,275.09 1155.53,275.03 1169.23,274.97" style="stroke-width: 2.13;stroke: #FF0000;stroke-linecap: butt;"/>
</g><g clip-path="url(#c2)">
<g><text x="28.34" y="596.44" text-anchor="end" style="font-family: Arial;font-size: 8.80px;fill: #4D4D4D;" textLength="9.79px" lengthAdjust="spacingAndGlyphs">10</text></g>
<g><text x="28.34" y="349.63" text-anchor="end" style="font-family: Arial;font-size: 8.80px;fill: #4D4D4D;" textLength="9.79px" lengthAdjust="spacingAndGlyphs">20</text></g>
<g><text x="28.34" y="102.82" text-anchor="end" style="font-family: Arial;font-size: 8.80px;fill: #4D4D4D;" textLength="9.79px" lengthAdjust="spacingAndGlyphs">30</text></g>
<polyline points="30.53,593.29 33.27,593.29" style="stroke-width: 1.07;stroke: #333333;stroke-linecap: butt;"/>
<polyline points="30.53,346.48 33.27,346.48" style="stroke-width: 1.07;stroke: #333333;stroke-linecap: butt;"/>
<polyline points="30.53,99.66 33.27,99.66" style="stroke-width: 1.07;stroke: #333333;stroke-linecap: butt;"/>
<polyline points="247.17,744.61 247.17,741.87" style="stroke-width: 1.07;stroke: #333333;stroke-linecap: butt;"/>
<polyline points="514.74,744.61 514.74,741.87" style="stroke-width: 1.07;stroke: #333333;stroke-linecap: butt;"/>
<polyline points="782.30,744.61 782.30,741.87" style="stroke-width: 1.07;stroke: #333333;stroke-linecap: butt;"/>
<polyline points="1049.86,744.61 1049.86,741.87" style="stroke-width: 1.07;stroke: #333333;stroke-linecap: butt;"/>
<g><text x="247.17" y="753.10" text-anchor="middle" style="font-family: Arial;font-size: 8.80px;fill: #4D4D4D;" textLength="9.79px" lengthAdjust="spacingAndGlyphs">10</text></g>
<g><text x="514.74" y="753.10" text-anchor="middle" style="font-family: Arial;font-size: 8.80px;fill: #4D4D4D;" textLength="9.79px" lengthAdjust="spacingAndGlyphs">20</text></g>
<g><text x="782.30" y="753.10" text-anchor="middle" style="font-family: Arial;font-size: 8.80px;fill: #4D4D4D;" textLength="9.79px" lengthAdjust="spacingAndGlyphs">30</text></g>
<g><text x="1049.86" y="753.10" text-anchor="middle" style="font-family: Arial;font-size: 8.80px;fill: #4D4D4D;" textLength="9.79px" lengthAdjust="spacingAndGlyphs">40</text></g>
<g><text x="628.29" y="765.69" text-anchor="middle" style="font-family: Arial;font-size: 11.00px;" textLength="114.34px" lengthAdjust="spacingAndGlyphs">electricity_consumption</text></g>
<g><text transform="translate(13.37,373.67) rotate(-90.00)" text-anchor="middle" style="font-family: Arial;font-size: 11.00px;" textLength="55.63px" lengthAdjust="spacingAndGlyphs">productivity</text></g>
</g>
</svg>