<svg xmlns="http://www.w3.org/2000/svg" xmlns:xlink="http://www.w3.org/1999/xlink" class="httpgd" width="1152.00" height="787.00" viewBox="0 0 921.60 629.60">
<defs>
  <style type='text/css'><![CDATA[
    .httpgd line, .httpgd polyline, .httpgd polygon, .httpgd path, .httpgd rect, .httpgd circle {
      fill: none;
      stroke: #000000;
      stroke-linecap: round;
      stroke-linejoin: round;
      stroke-miterlimit: 10.00;
    }
  ]]></style>
<clipPath id="c0"><rect x="0.00" y="0.00" width="921.60" height="629.60"/></clipPath>
<clipPath id="c1"><rect x="33.27" y="23.34" width="882.85" height="574.53"/></clipPath>
<clipPath id="c2"><rect x="0.00" y="0.00" width="921.60" height="629.60"/></clipPath>
</defs>
<rect width="100%" height="100%" style="stroke: none;fill: #FFFFFF;"/>
<g clip-path="url(#c0)">
<rect x="0.00" y="-0.00" width="921.60" height="629.60" style="stroke-width: 1.07;stroke: #FFFFFF;fill: #FFFFFF;"/>
</g><g clip-path="url(#c1)">
<rect x="33.27" y="23.34" width="882.85" height="574.53" style="stroke-width: 1.07;stroke: none;fill: #EBEBEB;"/>
<polyline points="33.27,577.13 916.12,577.13" style="stroke-width: 0.53;stroke: #FFFFFF;stroke-linecap: butt;"/>
<polyline points="33.27,417.88 916.12,417.88" style="stroke-width: 0.53;stroke: #FFFFFF;stroke-linecap: butt;"/>
<polyline points="33.27,258.63 916.12,258.63" style="stroke-width: 0.53;stroke: #FFFFFF;stroke-linecap: butt;"/>
<polyline points="33.27,99.38 916.12,99.38" style="stroke-width: 0.53;stroke: #FFFFFF;stroke-linecap: butt;"/>
<polyline points="92.71,597.87 92.71,23.34" style="stroke-width: 0.53;stroke: #FFFFFF;stroke-linecap: butt;"/>
<polyline points="291.19,597.87 291.19,23.34" style="stroke-width: 0.53;stroke: #FFFFFF;stroke-linecap: butt;"/>
<polyline points="489.68,597.87 489.68,23.34" style="stroke-width: 0.53;stroke: #FFFFFF;stroke-linecap: butt;"/>
<polyline points="688.16,597.87 688.16,23.34" style="stroke-width: 0.53;stroke: #FFFFFF;stroke-linecap: butt;"/>
<polyline points="886.65,597.87 886.65,23.34" style="stroke-width: 0.53;stroke: #FFFFFF;stroke-linecap: butt;"/>
<polyline points="33.27,497.50 916.12,497.50" style="stroke-width: 1.07;stroke: #FFFFFF;stroke-linecap: butt;"/>
<polyline points="33.27,338.26 916.12,338.26" style="stroke-width: 1.07;stroke: #FFFFFF;stroke-linecap: butt;"/>
<polyline points="33.27,179.01 916.12,179.01" style="stroke-width: 1.07;stroke: #FFFFFF;stroke-linecap: butt;"/>
<polyline points="191.95,597.87 191.95,23.34" style="stroke-width: 1.07;stroke: #FFFFFF;stroke-linecap: butt;"/>
<polyline points="390.44,597.87 390.44,23.34" style="stroke-width: 1.07;stroke: #FFFFFF;stroke-linecap: butt;"/>
<polyline points="588.92,597.87 588.92,23.34" style="stroke-width: 1.07;stroke: #FFFFFF;stroke-linecap: butt;"/>
<polyline points="787.40,597.87 787.40,23.34" style="stroke-width: 1.07;stroke: #FFFFFF;stroke-linecap: butt;"/>
<circle cx="86.13" cy="397.33" r="1.95" style="stroke-width: 0.71;fill: #000000;"/>
<circle cx="93.69" cy="472.45" r="1.95" style="stroke-width: 0.71;fill: #000000;"/>
<circle cx="114.94" cy="325.95" r="1.95" style="stroke-width: 0.71;fill: #000000;"/>
<circle cx="255.50" cy="326.57" r="1.95" style="stroke-width: 0.71;fill: #000000;"/>
<circle cx="82.32" cy="506.65" r="1.95" style="stroke-width: 0.71;fill: #000000;"/>
<circle cx="242.58" cy="313.00" r="1.95" style="stroke-width: 0.71;fill: #000000;"/>
<circle cx="331.00" cy="275.69" r="1.95" style="stroke-width: 0.71;fill: #000000;"/>
<circle cx="129.81" cy="389.31" r="1.95" style="stroke-width: 0.71;fill: #000000;"/>
<circle cx="123.85" cy="356.76" r="1.95" style="stroke-width: 0.71;fill: #000000;"/>
<circle cx="75.47" cy="361.04" r="1.95" style="stroke-width: 0.71;fill: #000000;"/>
<circle cx="82.59" cy="454.41" r="1.95" style="stroke-width: 0.71;fill: #000000;"/>
<circle cx="80.95" cy="425.06" r="1.95" style="stroke-width: 0.71;fill: #000000;"/>
<circle cx="135.41" cy="405.23" r="1.95" style="stroke-width: 0.71;fill: #000000;"/>
<circle cx="94.61" cy="481.37" r="1.95" style="stroke-width: 0.71;fill: #000000;"/>
<circle cx="158.98" cy="304.08" r="1.95" style="stroke-width: 0.71;fill: #000000;"/>
<circle cx="105.47" cy="321.46" r="1.95" style="stroke-width: 0.71;fill: #000000;"/>
<circle cx="142.90" cy="401.50" r="1.95" style="stroke-width: 0.71;fill: #000000;"/>
<circle cx="875.99" cy="267.71" r="1.95" style="stroke-width: 0.71;fill: #000000;"/>
<circle cx="94.31" cy="432.45" r="1.95" style="stroke-width: 0.71;fill: #000000;"/>
<circle cx="161.76" cy="408.97" r="1.95" style="stroke-width: 0.71;fill: #000000;"/>
<circle cx="304.21" cy="139.85" r="1.95" style="stroke-width: 0.71;fill: #000000;"/>
<circle cx="82.91" cy="443.02" r="1.95" style="stroke-width: 0.71;fill: #000000;"/>
<circle cx="127.96" cy="394.58" r="1.95" style="stroke-width: 0.71;fill: #000000;"/>
<circle cx="78.37" cy="445.64" r="1.95" style="stroke-width: 0.71;fill: #000000;"/>
<circle cx="86.23" cy="504.49" r="1.95" style="stroke-width: 0.71;fill: #000000;"/>
<circle cx="94.78" cy="418.24" r="1.95" style="stroke-width: 0.71;fill: #000000;"/>
<circle cx="73.43" cy="571.75" r="1.95" style="stroke-width: 0.71;fill: #000000;"/>
<circle cx="94.50" cy="309.77" r="1.95" style="stroke-width: 0.71;fill: #000000;"/>
<circle cx="213.39" cy="333.55" r="1.95" style="stroke-width: 0.71;fill: #000000;"/>
<circle cx="91.18" cy="279.67" r="1.95" style="stroke-width: 0.71;fill: #000000;"/>
<circle cx="103.77" cy="426.90" r="1.95" style="stroke-width: 0.71;fill: #000000;"/>
<circle cx="118.92" cy="389.57" r="1.95" style="stroke-width: 0.71;fill: #000000;"/>
<circle cx="105.01" cy="419.20" r="1.95" style="stroke-width: 0.71;fill: #000000;"/>
<circle cx="81.49" cy="519.41" r="1.95" style="stroke-width: 0.71;fill: #000000;"/>
<circle cx="184.59" cy="448.28" r="1.95" style="stroke-width: 0.71;fill: #000000;"/>
<circle cx="131.33" cy="331.20" r="1.95" style="stroke-width: 0.71;fill: #000000;"/>
<circle cx="168.52" cy="339.71" r="1.95" style="stroke-width: 0.71;fill: #000000;"/>
<circle cx="77.54" cy="479.87" r="1.95" style="stroke-width: 0.71;fill: #000000;"/>
<circle cx="144.53" cy="331.42" r="1.95" style="stroke-width: 0.71;fill: #000000;"/>
<circle cx="96.97" cy="405.30" r="1.95" style="stroke-width: 0.71;fill: #000000;"/>
<polygon points="73.40,432.28 83.56,416.45 93.71,376.96 103.87,343.51 114.03,335.06 124.19,330.42 134.35,324.62 144.51,320.93 154.67,321.95 164.83,322.90 174.99,322.80 185.15,320.47 195.30,315.37 205.46,307.66 215.62,297.69 225.78,286.72 235.94,275.41 246.10,263.94 256.26,252.43 266.42,241.00 276.58,229.72 286.73,218.66 296.89,207.87 307.05,197.39 317.21,187.25 327.37,177.45 337.53,168.01 347.69,158.95 357.85,150.26 368.01,141.95 378.16,134.01 388.32,126.46 398.48,119.27 408.64,112.46 418.80,106.02 428.96,99.94 439.12,94.23 449.28,88.87 459.44,83.86 469.59,79.20 479.75,74.89 489.91,70.93 500.07,67.30 510.23,64.01 520.39,61.06 530.55,58.44 540.71,56.15 550.87,54.20 561.02,52.59 571.18,51.30 581.34,50.35 591.50,49.73 601.66,49.45 611.82,49.50 621.98,49.89 632.14,50.61 642.30,51.67 652.46,53.07 662.61,54.80 672.77,56.86 682.93,59.24 693.09,61.95 703.25,64.97 713.41,68.30 723.57,71.93 733.73,75.83 743.89,80.00 754.04,84.42 764.20,89.05 774.36,93.88 784.52,98.87 794.68,103.99 804.84,109.20 815.00,114.45 825.16,119.72 835.32,124.94 845.47,130.08 855.63,135.10 865.79,139.95 875.95,144.59 875.95,390.90 865.79,378.83 855.63,367.65 845.47,357.32 835.32,347.80 825.16,339.03 815.00,330.98 804.84,323.58 794.68,316.80 784.52,310.59 774.36,304.91 764.20,299.72 754.04,294.98 743.89,290.67 733.73,286.75 723.57,283.21 713.41,280.01 703.25,277.15 693.09,274.61 682.93,272.37 672.77,270.43 662.61,268.77 652.46,267.39 642.30,266.28 632.14,265.44 621.98,264.86 611.82,264.54 601.66,264.46 591.50,264.64 581.34,265.07 571.18,265.74 561.02,266.64 550.87,267.79 540.71,269.17 530.55,270.77 520.39,272.60 510.23,274.65 500.07,276.91 489.91,279.37 479.75,282.04 469.59,284.91 459.44,287.96 449.28,291.19 439.12,294.59 428.96,298.16 418.80,301.89 408.64,305.77 398.48,309.78 388.32,313.94 378.16,318.22 368.01,322.62 357.85,327.14 347.69,331.77 337.53,336.51 327.37,341.36 317.21,346.34 307.05,351.43 296.89,356.66 286.73,362.06 276.58,367.65 266.42,373.47 256.26,379.59 246.10,386.09 235.94,393.08 225.78,400.67 215.62,409.04 205.46,416.03 195.30,417.69 185.15,415.91 174.99,412.63 164.83,409.10 154.67,405.92 144.51,403.88 134.35,406.95 124.19,412.00 114.03,410.03 103.87,423.52 93.71,442.78 83.56,476.07 73.40,554.06" style="stroke-width: 0.00;stroke: none;fill: #999999;fill-opacity: 0.40;" />
<polyline points="73.40,432.28 83.56,416.45 93.71,376.96 103.87,343.51 114.03,335.06 124.19,330.42 134.35,324.62 144.51,320.93 154.67,321.95 164.83,322.90 174.99,322.80 185.15,320.47 195.30,315.37 205.46,307.66 215.62,297.69 225.78,286.72 235.94,275.41 246.10,263.94 256.26,252.43 266.42,241.00 276.58,229.72 286.73,218.66 296.89,207.87 307.05,197.39 317.21,187.25 327.37,177.45 337.53,168.01 347.69,158.95 357.85,150.26 368.01,141.95 378.16,134.01 388.32,126.46 398.48,119.27 408.64,112.46 418.80,106.02 428.96,99.94 439.12,94.23 449.28,88.87 459.44,83.86 469.59,79.20 479.75,74.89 489.91,70.93 500.07,67.30 510.23,64.01 520.39,61.06 530.55,58.44 540.71,56.15 550.87,54.20 561.02,52.59 571.18,51.30 581.34,50.35 591.50,49.73 601.66,49.45 611.82,49.50 621.98,49.89 632.14,50.61 642.30,51.67 652.46,53.07 662.61,54.80 672.77,56.86 682.93,59.24 693.09,61.95 703.25,64.97 713.41,68.30 723.57,71.93 733.73,75.83 743.89,80.00 754.04,84.42 764.20,89.05 774.36,93.88 784.52,98.87 794.68,103.99 804.84,109.20 815.00,114.45 825.16,119.72 835.32,124.94 845.47,130.08 855.63,135.10 865.79,139.95 875.95,144.59" style="stroke-width: 2.13;stroke: none;"/>
<polyline points="875.95,390.90 865.79,378.83 855.63,367.65 845.47,357.32 835.32,347.80 825.16,339.03 815.00,330.98 804.84,323.58 794.68,316.80 784.52,310.59 774.36,304.91 764.20,299.72 754.04,294.98 743.89,290.67 733.73,286.75 723.57,283.21 713.41,280.01 703.25,277.15 693.09,274.61 682.93,272.37 672.77,270.43 662.61,268.77 652.46,267.39 642.30,266.28 632.14,265.44 621.98,264.86 611.82,264.54 601.66,264.46 591.50,264.64 581.34,265.07 571.18,265.74 561.02,266.64 550.87,267.79 540.71,269.17 530.55,270.77 520.39,272.60 510.23,274.65 500.07,276.91 489.91,279.37 479.75,282.04 469.59,284.91 459.44,287.96 449.28,291.19 439.12,294.59 428.96,298.16 418.80,301.89 408.64,305.77 398.48,309.78 388.32,313.94 378.16,318.22 368.01,322.62 357.85,327.14 347.69,331.77 337.53,336.51 327.37,341.36 317.21,346.34 307.05,351.43 296.89,356.66 286.73,362.06 276.58,367.65 266.42,373.47 256.26,379.59 246.10,386.09 235.94,393.08 225.78,400.67 215.62,409.04 205.46,416.03 195.30,417.69 185.15,415.91 174.99,412.63 164.83,409.10 154.67,405.92 144.51,403.88 134.35,406.95 124.19,412.00 114.03,410.03 103.87,423.52 93.71,442.78 83.56,476.07 73.40,554.06" style="stroke-width: 2.13;stroke: none;"/>
<polyline points="73.40,493.17 83.56,446.26 93.71,409.87 103.87,383.52 114.03,372.55 124.19,371.21 134.35,365.78 144.51,362.41 154.67,363.93 164.83,366.00 174.99,367.72 185.15,368.19 195.30,366.53 205.46,361.85 215.62,353.36 225.78,343.70 235.94,334.25 246.10,325.02 256.26,316.01 266.42,307.23 276.58,298.68 286.73,290.36 296.89,282.27 307.05,274.41 317.21,266.79 327.37,259.41 337.53,252.26 347.69,245.36 357.85,238.70 368.01,232.28 378.16,226.12 388.32,220.20 398.48,214.53 408.64,209.11 418.80,203.96 428.96,199.05 439.12,194.41 449.28,190.03 459.44,185.91 469.59,182.06 479.75,178.47 489.91,175.15 500.07,172.10 510.23,169.33 520.39,166.83 530.55,164.60 540.71,162.66 550.87,161.00 561.02,159.62 571.18,158.52 581.34,157.71 591.50,157.19 601.66,156.96 611.82,157.02 621.98,157.38 632.14,158.03 642.30,158.98 652.46,160.23 662.61,161.78 672.77,163.64 682.93,165.81 693.09,168.28 703.25,171.06 713.41,174.16 723.57,177.57 733.73,181.29 743.89,185.34 754.04,189.70 764.20,194.39 774.36,199.40 784.52,204.73 794.68,210.40 804.84,216.39 815.00,222.71 825.16,229.37 835.32,236.37 845.47,243.70 855.63,251.37 865.79,259.39 875.95,267.75" style="stroke-width: 2.13;stroke: #3366FF;stroke-linecap: butt;"/>
</g><g clip-path="url(#c2)">
<g><text x="28.34" y="500.66" text-anchor="end" style="font-family: Arial;font-size: 8.80px;fill: #4D4D4D;" textLength="9.79px" lengthAdjust="spacingAndGlyphs">10</text></g>
<g><text x="28.34" y="341.41" text-anchor="end" style="font-family: Arial;font-size: 8.80px;fill: #4D4D4D;" textLength="9.79px" lengthAdjust="spacingAndGlyphs">20</text></g>
<g><text x="28.34" y="182.16" text-anchor="end" style="font-family: Arial;font-size: 8.80px;fill: #4D4D4D;" textLength="9.79px" lengthAdjust="spacingAndGlyphs">30</text></g>
<polyline points="30.53,497.50 33.27,497.50" style="stroke-width: 1.07;stroke: #333333;stroke-linecap: butt;"/>
<polyline points="30.53,338.26 33.27,338.26" style="stroke-width: 1.07;stroke: #333333;stroke-linecap: butt;"/>
<polyline points="30.53,179.01 33.27,179.01" style="stroke-width: 1.07;stroke: #333333;stroke-linecap: butt;"/>
<polyline points="191.95,600.61 191.95,597.87" style="stroke-width: 1.07;stroke: #333333;stroke-linecap: butt;"/>
<polyline points="390.44,600.61 390.44,597.87" style="stroke-width: 1.07;stroke: #333333;stroke-linecap: butt;"/>
<polyline points="588.92,600.61 588.92,597.87" style="stroke-width: 1.07;stroke: #333333;stroke-linecap: butt;"/>
<polyline points="787.40,600.61 787.40,597.87" style="stroke-width: 1.07;stroke: #333333;stroke-linecap: butt;"/>
<g><text x="191.95" y="609.10" text-anchor="middle" style="font-family: Arial;font-size: 8.80px;fill: #4D4D4D;" textLength="9.79px" lengthAdjust="spacingAndGlyphs">10</text></g>
<g><text x="390.44" y="609.10" text-anchor="middle" style="font-family: Arial;font-size: 8.80px;fill: #4D4D4D;" textLength="9.79px" lengthAdjust="spacingAndGlyphs">20</text></g>
<g><text x="588.92" y="609.10" text-anchor="middle" style="font-family: Arial;font-size: 8.80px;fill: #4D4D4D;" textLength="9.79px" lengthAdjust="spacingAndGlyphs">30</text></g>
<g><text x="787.40" y="609.10" text-anchor="middle" style="font-family: Arial;font-size: 8.80px;fill: #4D4D4D;" textLength="9.79px" lengthAdjust="spacingAndGlyphs">40</text></g>
<g><text x="474.69" y="621.69" text-anchor="middle" style="font-family: Arial;font-size: 11.00px;" textLength="148.54px" lengthAdjust="spacingAndGlyphs">Electricity consumption (MWh)</text></g>
<g><text transform="translate(13.37,310.60) rotate(-90.00)" text-anchor="middle" style="font-family: Arial;font-size: 11.00px;" textLength="126.80px" lengthAdjust="spacingAndGlyphs">Productivity (1000€ / day)</text></g>
<g><text x="33.27" y="14.94" style="font-family: Arial;font-size: 13.20px;" textLength="218.10px" lengthAdjust="spacingAndGlyphs">Productivity ~ Electricity consumption</text></g>
</g>
</svg>